<?xml version="1.0" encoding="UTF-8"?><svg id="Layer_2" xmlns="http://www.w3.org/2000/svg" viewBox="0 0 152.69 174.45"><defs><style>.cls-1{stroke-width:0px;}</style></defs><g id="Layer_1-2"><path class="cls-1" d="m81.44,11.75c-3.61,22.99-7.23,45.98-10.84,68.97-1.39,8.81-3.29,19.56,4.55,26.05,6.89,5.71,17.01,6.04,25.5,6.91,10.41,1.06,21.33,1.41,31.25-2.43,8.31-3.21,15.55-9.05,18.86-17.5,3.6-9.2,1.68-19.54-1.69-28.5-3.56-9.45-8.68-18.47-14.2-26.91C124.13,21.92,109.35,7.12,90.06,1.53c-2.24-.65-4.51-1.15-6.81-1.51-1.89-.3-2.7,2.59-.8,2.89,18.71,2.96,34.13,15.45,45.19,30.29,5.82,7.81,10.83,16.31,15.12,25.05s7.53,17.59,6.85,26.98-5.89,16.34-13.57,20.76c-8.37,4.83-18.15,5.74-27.64,5.29-5.18-.25-10.35-.84-15.5-1.48-3.91-.49-7.94-1.16-11.57-2.74s-6.65-4.15-8.02-7.89c-1.56-4.25-1.12-8.99-.48-13.38,3.15-21.74,6.82-43.41,10.23-65.11l1.28-8.13c.3-1.89-2.59-2.7-2.89-.8h0Z"/><path class="cls-1" d="m108.5,55.85c1.49,15.61.21,31.41-3.68,46.6s-10.35,29.83-19.08,42.94c-4.9,7.36-10.52,14.2-16.78,20.44-1.37,1.37.75,3.49,2.12,2.12,11.32-11.3,20.6-24.61,27.4-39.08,6.82-14.5,11.2-30.07,12.88-46,.95-8.98,1-18.04.14-27.03-.18-1.9-3.18-1.92-3,0h0Z"/><path class="cls-1" d="m110.12,91.12c6.7-.95,13-4.53,17.24-9.8.51-.63.62-1.51,0-2.12-.53-.53-1.61-.63-2.12,0-3.97,4.93-9.65,8.15-15.92,9.03-.8.11-1.24,1.14-1.05,1.85.24.86,1.04,1.16,1.85,1.05h0Z"/><path class="cls-1" d="m67.96,173.02c-1.5-14.69-11.3-27.74-24.97-33.29-1.79-.73-2.57,2.17-.8,2.89,12.32,5,21.42,17.17,22.77,30.4.19,1.9,3.2,1.92,3,0h0Z"/><path class="cls-1" d="m52.78,147.32c-.2-17.93-16.02-35.12-34.52-34.16-4.93.26-9.81,1.96-13.35,5.49-3.22,3.21-5.31,7.8-4.85,12.4.84,8.41,8.75,13.28,16.32,14.99,11.41,2.59,23.48-2.15,34.61,2.26,1.79.71,2.57-2.19.8-2.89-9.46-3.75-19.55-1.08-29.36-1.55-6.73-.32-15.07-2.87-18.32-9.34-1.74-3.47-1.28-7.53.65-10.81,2.3-3.91,6.23-6.3,10.61-7.19,8.28-1.68,17.14,1.75,23.31,7.23,6.71,5.96,11.01,14.55,11.1,23.57.02,1.93,3.02,1.93,3,0h0Z"/></g></svg>