<?xml version="1.0" encoding="UTF-8"?><svg id="Layer_2" xmlns="http://www.w3.org/2000/svg" viewBox="0 0 92.4 89.05"><defs><style>.cls-1{stroke-width:0px;}</style></defs><g id="Layer_1-2"><path class="cls-1" d="m26.98.01C11.71,1.78.91,16.36.06,31.12c-.99,17.33,9.53,33.87,22.51,44.51s30.12,17.02,46.05,11.38c13.54-4.79,25.28-18.64,23.62-33.62-1.84-16.68-18.25-27.24-32.5-32.9-8.14-3.24-17.27-4.78-25.79-2.11-7.58,2.38-13.75,7.92-15.94,15.68-4.4,15.6,6.32,32.6,21.13,37.74,7.4,2.57,15.73,1.7,22.16-2.89,6-4.28,9.65-11.23,8.38-18.66-1.14-6.68-6.22-13.12-13.11-14.38s-14.26,3.57-16.65,10.26,1.73,14.44,8.98,15.57c3.13.49,6.59-.55,8.3-3.38,1.44-2.38,1.39-5.5.3-8s-3.36-4.28-6.15-4.12c-1.92.11-1.93,3.11,0,3,2.19-.12,3.45,1.73,3.84,3.71.42,2.16-.28,4.47-2.37,5.43-2.54,1.18-5.65.15-7.67-1.59-2.26-1.95-3.33-4.85-2.87-7.8.91-5.86,6.91-10.91,12.91-10.27s10.46,6.34,11.54,12.05c1.22,6.45-2.36,12.61-7.68,16.09-5.92,3.87-13.1,4.32-19.67,1.89-12.9-4.78-22.19-19.83-18.58-33.51,1.82-6.89,7.23-11.82,13.94-13.92,7.6-2.38,15.61-1.11,22.94,1.62s14.01,6.38,19.79,11.2c5.32,4.44,9.78,10.09,11.36,16.95,3,13.06-6.19,25.88-17.46,31.55-13.28,6.68-29.15,2.69-41.07-5.01-12.64-8.16-23.32-21.4-26.46-36.32-1.46-6.95-1.06-14.23,1.76-20.79,2.56-5.93,6.86-11.24,12.49-14.48,2.72-1.57,5.75-2.62,8.88-2.99,1.9-.22,1.92-3.22,0-3h0Z"/></g></svg>