<?xml version="1.0" encoding="UTF-8"?><svg id="Layer_2" xmlns="http://www.w3.org/2000/svg" viewBox="0 0 114.13 108.91"><defs><style>.cls-1{stroke-width:0px;}</style></defs><g id="Layer_1-2"><path class="cls-1" d="m38.21,40.52c-4.74-4.52-8.83-10.05-10.34-16.52-1.3-5.57-.19-11.56,3.51-16.01s9.04-6.21,14.39-4.24,9.34,7.12,10.98,12.43c2.55,8.28.67,17.17-1.03,25.42l2.89.8c1.05-5.89,3.1-11.55,6.11-16.72s6.85-10.09,11.64-13.51c2.23-1.59,4.89-2.83,7.68-2.45,2.5.34,4.81,1.97,5.14,4.62.37,2.98-1.43,5.96-3.04,8.31-1.87,2.74-3.94,5.35-6,7.94-4.8,6.02-9.92,11.78-15.33,17.27-1.19,1.2.33,3.24,1.82,2.36,11.4-6.79,27.41-15.6,39.36-4.95,4.4,3.92,6.91,10.09,3.86,15.61-2.79,5.05-8.86,7.64-14.42,7.83-8.52.29-16.38-4.43-23.47-8.58-1.03-.6-2.72.43-2.2,1.69,2.47,6.01,3.97,12.38,4.34,18.87.34,5.93.03,12.36-2,18-1.64,4.52-5.44,8.34-10.58,7.02-4.47-1.14-8.14-5.17-9.24-9.6-1.81-7.29,1.33-14.87,4.01-21.53.64-1.57-1.98-2.66-2.74-1.16-4.74,9.31-14.59,20.4-26.32,17.23-4.7-1.27-9.33-4.74-10.84-9.52s.79-9.47,4.6-12.37c4.62-3.51,10.61-4.98,16.19-6.11l-1.16-2.74c-5.69,2.57-11.69,5.28-18.05,5.35-5.01.06-10.23-2.03-13.15-6.26-7.08-10.24,6.99-18.83,15.37-20.97,6.11-1.56,12.55-1.32,18.52.7,1.83.62,2.62-2.28.8-2.89-11.62-3.92-26.43-1.51-35.09,7.61-4.05,4.26-5.83,10.15-3.06,15.61,2.52,4.96,7.98,8.27,13.39,9.01,7.99,1.08,15.69-2.35,22.79-5.56,1.63-.74.41-3.06-1.16-2.74-5.66,1.14-11.6,2.68-16.39,6.04s-7.82,8.46-6.92,14.29,5.58,10.34,10.76,12.54c5.88,2.5,12.2,1.68,17.71-1.38,6.48-3.6,11.29-9.8,14.6-16.31l-2.74-1.16c-2.76,6.83-5.52,14.12-4.31,21.62.88,5.49,4.68,10.41,9.83,12.57s10.83.4,14.02-4.3c3.52-5.19,4.13-12.4,4.25-18.48.16-8.26-1.39-16.54-4.53-24.18l-2.2,1.69c7.21,4.22,14.9,8.63,23.47,8.99,6.44.26,13.38-2.32,17.35-7.53,4.31-5.65,3.53-13.04-.73-18.45-4.48-5.68-11.67-8.73-18.84-8.41-9.71.43-18.42,5.47-26.57,10.32l1.82,2.36c5.46-5.54,10.64-11.36,15.48-17.45,2.25-2.84,4.55-5.7,6.56-8.72,1.82-2.75,3.51-6.08,3.21-9.48-.58-6.61-7.94-8.98-13.45-6.86-3.17,1.22-5.81,3.44-8.19,5.8s-4.38,4.79-6.23,7.46c-4.32,6.23-7.27,13.41-8.6,20.87-.33,1.88,2.5,2.7,2.89.8,1.7-8.24,3.41-16.83,1.51-25.19-1.46-6.4-5.63-12.55-11.6-15.51s-12.73-1.99-17.62,2.47-7.11,10.98-6.46,17.3c.86,8.31,5.73,15.54,11.66,21.18,1.4,1.33,3.52-.79,2.12-2.12h0Z"/></g></svg>