<?xml version="1.0" encoding="UTF-8"?><svg id="Layer_2" xmlns="http://www.w3.org/2000/svg" viewBox="0 0 40.85 137.19"><defs><style>.cls-1{stroke-width:0px;}</style></defs><g id="Layer_1-2"><path class="cls-1" d="m28.06,1.44c2.27,28.07-3.22,56.64-15.65,81.9-3.51,7.14-7.57,13.99-12.13,20.51-1.11,1.59,1.49,3.09,2.59,1.51,8.18-11.69,14.71-24.49,19.48-37.93,4.77-13.44,7.72-27.52,8.79-41.75.61-8.07.58-16.18-.07-24.25-.15-1.91-3.16-1.93-3,0h0Z"/><path class="cls-1" d="m33.88,69.67c.41,17.24-7.42,34.16-20.35,45.48-3.62,3.17-7.65,5.84-11.96,7.98-1.73.86-.21,3.45,1.51,2.59,16.1-7.99,28.02-23.55,32.18-40.97,1.18-4.93,1.73-10.01,1.61-15.08-.05-1.93-3.05-1.93-3,0h0Z"/><path class="cls-1" d="m38.01,104.1c-8.7,13.4-21.32,23.99-35.97,30.36-1.77.77-.24,3.35,1.51,2.59,15.11-6.57,28.07-17.63,37.04-31.44,1.05-1.62-1.54-3.13-2.59-1.51h0Z"/></g></svg>