<?xml version="1.0" encoding="UTF-8"?><svg id="Layer_2" xmlns="http://www.w3.org/2000/svg" viewBox="0 0 75.13 132.58"><defs><style>.cls-1{stroke-width:0px;}</style></defs><g id="Layer_1-2"><path class="cls-1" d="m37.91,130.77c-9.47-25.56-10.73-53.91-3.77-80.25,1.95-7.39,4.53-14.6,7.75-21.52.81-1.74-1.78-3.27-2.59-1.51-11.72,25.21-15.31,53.85-10.49,81.22,1.37,7.79,3.45,15.45,6.2,22.87.67,1.79,3.57,1.02,2.89-.8h0Z"/><path class="cls-1" d="m24.88,88.43c-5.68,2.88-12.3.19-16.47-4.07-5.42-5.54-6.22-13.54-4.8-20.86,1.57-8.08,5.3-15.7,9.31-22.83s8.6-13.77,13.83-19.95c2.61-3.09,5.37-6.05,8.26-8.88s5.68-5.59,9.19-7.41,7.08-1.88,10.44-.07,5.79,4.59,7.86,7.58c8.71,12.6,12.38,29.27,7.37,44.02-4.35,12.81-16.15,23.47-29.74,25.26-1.66.22-3.34.28-5.01.24-1.93-.05-1.93,2.95,0,3,15.13.41,29.21-9.58,35.69-22.95,7.36-15.19,4.77-33.62-3.63-47.82C63.36,7.22,57.3-.42,48.95.02c-4.25.22-7.92,2.52-11.12,5.16-3.35,2.77-6.44,5.92-9.39,9.11-5.97,6.44-11.29,13.5-15.86,21.01S3.72,51.08,1.43,59.68c-2.1,7.88-2.37,17.12,2.57,24.04,3.91,5.47,10.61,9.65,17.53,8.81,1.72-.21,3.32-.72,4.87-1.51,1.72-.87.21-3.46-1.51-2.59h0Z"/><path class="cls-1" d="m28.61,64.73c-1.74-1.69-3.48-3.38-5.23-5.07-.56-.55-1.57-.6-2.12,0s-.6,1.54,0,2.12c1.74,1.69,3.48,3.38,5.23,5.07.56.55,1.57.6,2.12,0s.6-1.54,0-2.12h0Z"/></g></svg>