<?xml version="1.0" encoding="UTF-8"?><svg id="Layer_2" xmlns="http://www.w3.org/2000/svg" viewBox="0 0 61.37 63.83"><defs><style>.cls-1{stroke-width:0px;}</style></defs><g id="Layer_1-2"><path class="cls-1" d="m3.88,48.16c-1.91-12.13-1.13-25.79,7.04-35.63,3.42-4.12,7.9-7.4,13.1-8.82s10.36-.78,15.1,1.3c9.93,4.37,16.97,14.12,18.76,24.71s-1.8,23.28-12.11,28.65c-4.44,2.32-9.78,3.17-14.64,1.77-5.23-1.5-9.07-5.59-11.67-10.22s-4.59-10.39-5.49-15.84-.27-11.64,4.66-14.96c8.82-5.94,23.39-1.79,27.08,8.38,1.71,4.71,1.26,10.25-1.69,14.38-2.74,3.83-7.6,5.57-12.2,4.86s-8.25-3.58-9.09-8.08c-.74-3.97.89-8.63,4.25-10.98s10.1-1.89,11.26,2.89c.46,1.91-.45,4.17-2.1,5.25s-3.35.45-4.17-1.21c-.65-1.32-.71-3.13.75-3.89,1.71-.89.2-3.48-1.51-2.59-4.53,2.36-2.8,9.65,1.66,11.01,5.77,1.76,9.96-5.65,7.87-10.44-2.37-5.43-9.7-6.81-14.55-4.07-4.49,2.54-6.98,8.06-6.58,13.11.97,12.22,17.2,15.76,25.22,7.78,4.3-4.29,5.69-10.84,4.4-16.66-1.35-6.12-5.93-11-11.61-13.46s-12.86-2.76-18.69.07c-6.3,3.06-8.76,9.59-8.26,16.27s2.71,13.14,5.73,18.85,7.45,10.43,13.59,12.32c5.77,1.78,12.17.74,17.44-2.06,5.69-3.02,9.78-8.16,11.97-14.17,4.55-12.44.92-26.93-8-36.48-4.2-4.49-9.63-8.03-15.63-9.51S23.33.05,17.8,2.99C5.17,9.7-.08,24.21,0,37.82c.02,3.74.4,7.45.98,11.14.3,1.9,3.19,1.09,2.89-.8h0Z"/></g></svg>