<?xml version="1.0" encoding="UTF-8"?><svg id="Layer_2" xmlns="http://www.w3.org/2000/svg" viewBox="0 0 91.55 77.81"><defs><style>.cls-1{stroke-width:0px;}</style></defs><g id="Layer_1-2"><path class="cls-1" d="m37.89,1.15c-7.57-2.38-15.88-.94-22.63,3.07C8.06,8.5,2.98,15.48,1.01,23.61c-2.12,8.74-.81,18.12,3.09,26.16s10.18,14.25,17.47,18.89c13.7,8.73,31.93,12.08,47.38,6.17,7.56-2.89,14.16-8.05,18.15-15.16s5.45-16.21,3.68-24.45c-3.51-16.37-20.25-28.19-36.86-26.08s-31.78,17.97-29.52,35.67c1.09,8.57,6.71,16.29,15.09,19s16.56-1.27,22.75-6.84c3.24-2.91,6.1-6.24,8.84-9.63s5.86-7.68,5.54-12.4c-.61-9.05-11.98-12.3-19.49-11.27-4.04.56-7.98,2.4-10.51,5.67-2.37,3.05-3.47,7.05-2.79,10.87.63,3.56,2.99,6.46,6.38,7.72,2.97,1.1,6.63.87,9.33-.85s4.36-5.11,3.4-8.39c-.89-3.04-3.6-5.74-6.73-6.42s-6.53.84-7.37,4.03c-.72,2.77.7,5.9,2.81,7.71,2.26,1.94,5.14,2.31,7.51.36,1.49-1.23-.64-3.34-2.12-2.12-3.06,2.52-8.07-5.22-3.59-6.96,2.31-.9,4.9,1.02,6.02,2.92,1.36,2.3.74,4.95-1.56,6.36-2.15,1.32-5.06,1.36-7.32.29-2.76-1.3-4.04-4.24-3.97-7.19.08-3.23,1.71-6.45,4.29-8.4,3.03-2.3,6.95-3.02,10.67-2.73,3.46.26,7.22,1.43,9.76,3.88,2.97,2.88,2.67,6.76.81,10.18s-4.7,6.58-7.36,9.53c-2.5,2.78-5.18,5.46-8.26,7.59-2.9,2-6.2,3.58-9.75,3.91s-7.17-.57-10.26-2.48c-6.74-4.16-9.81-11.9-9.27-19.62,1.04-14.94,14.66-27.04,29.4-27.61s28.32,10.02,31.28,24.29c1.47,7.08.38,14.73-2.97,21.13s-8.75,11.06-15.21,13.95c-12.99,5.81-28.72,3.98-41.23-2.16C14.66,62.32,3.59,49.48,3.02,33.51c-.27-7.45,1.82-15.15,6.76-20.85C14.22,7.53,20.59,3.93,27.36,3.14c3.29-.38,6.57-.09,9.73.9,1.85.58,2.64-2.31.8-2.89h0Z"/></g></svg>