<?xml version="1.0" encoding="UTF-8"?><svg id="Layer_2" xmlns="http://www.w3.org/2000/svg" viewBox="0 0 91.7 83.03"><defs><style>.cls-1{stroke-width:0px;}</style></defs><g id="Layer_1-2"><path class="cls-1" d="m14.33,80.55C4.43,72.61,1.38,59.01,3.82,46.94c2.75-13.62,12.57-24.39,24.02-31.67,6.04-3.84,12.6-6.93,19.38-9.22s13.47-3.64,20.32-2.82,12.83,4.57,16.21,10.76c3.62,6.63,4.86,14.8,4.94,22.27.08,7.83-1.46,15.79-5.24,22.71-3.27,6-8.21,11.11-14.2,14.42s-12.61,4.6-19.15,3.22c-6.18-1.31-12.09-4.77-15.82-9.94s-4.86-11.23-3.24-17.26,5.38-11.04,10.51-14.19c5.49-3.37,12.2-3.86,18.16-1.39s10.68,8.19,10.89,14.98c.2,6.36-3.26,12.52-9.6,14.33s-13.28-.76-15.25-7.17c-1.02-3.31-.28-6.92,2.49-9.14,2.53-2.02,6.07-2.2,8.41.19,2.01,2.05,2.47,5.4.03,7.3-.99.77-2.29,1.2-3.54,1.1-.93-.07-2.1-.42-2.22-1.48-.19-1.8,2.17-3.96,3.86-2.93s3.16-1.58,1.51-2.59c-2.76-1.69-6.14-.04-7.61,2.6-1.63,2.93-.44,6.17,2.81,7.14s6.73-.52,8.61-3.13c2.18-3.02,1.32-7.08-.99-9.75-2.51-2.91-6.56-3.77-10.08-2.34s-6.16,4.8-6.64,8.65,1.11,8.2,4,11c2.6,2.52,6.12,3.85,9.71,4.07,7.51.45,14.19-4.15,16.56-11.25s.13-15.46-5.58-20.47-14.01-6.95-21.34-4.84c-6.74,1.95-12.39,7.05-15.55,13.26s-3.86,13.71-1.04,20.31,8.94,11.9,15.78,14.54c15.19,5.86,31.61-2.51,39.89-15.62,4.72-7.48,6.81-16.45,6.88-25.23s-1.35-17.92-5.65-25.39S74.88.9,66.82.15s-15.91,1.25-23.24,4.03c-15.05,5.7-29.7,14.96-37.86,29.26-7.08,12.4-8.01,29.05-.36,41.44,1.83,2.97,4.14,5.62,6.86,7.8,1.49,1.2,3.63-.91,2.12-2.12h0Z"/></g></svg>