<?xml version="1.0" encoding="UTF-8"?><svg id="Layer_2" xmlns="http://www.w3.org/2000/svg" viewBox="0 0 94.6 149.79"><defs><style>.cls-1{stroke-width:0px;}</style></defs><g id="Layer_1-2"><path class="cls-1" d="m5.93,147.92c-3.64-16.34-3.46-33.43.12-49.77,3.58-16.31,10.47-31.86,20.27-45.39,5.53-7.64,12.03-14.56,19.28-20.59,1.49-1.23-.65-3.35-2.12-2.12-13.18,10.94-23.76,24.9-31.09,40.37S.86,102.88.34,120.04c-.29,9.62.61,19.28,2.71,28.68.42,1.88,3.31,1.09,2.89-.8h0Z"/><path class="cls-1" d="m5.39,84.88C2.62,67.54-.07,47.54,11.84,32.83c5.46-6.75,12.8-11.67,20.42-15.69,8.64-4.55,17.78-8.12,27.2-10.69,4.6-1.26,9.3-2.36,14.03-3.04,3.59-.51,7.43-.67,10.93.42,3.88,1.21,6.26,4.19,6.94,8.17.78,4.54.04,9.51-.47,14.05-1.14,10.01-3.49,19.89-6.91,29.36-3.04,8.41-6.92,16.92-13.25,23.4-13.99,14.32-35.56,12.45-53.44,8.63-2.53-.54-5.06-1.12-7.59-1.7-1.88-.43-2.68,2.46-.8,2.89,19.13,4.37,41.79,9.02,59.03-3.48,7.63-5.53,12.64-13.71,16.3-22.25,4.13-9.66,7.06-19.84,8.75-30.21.85-5.21,1.46-10.5,1.62-15.77.14-4.46-.43-9.17-3.63-12.55-5.82-6.16-15.85-4.45-23.21-2.97-10.18,2.05-20.11,5.27-29.58,9.53-8.54,3.84-16.96,8.47-23.86,14.88S2.81,40.34,1.05,49.57c-1.82,9.56-.98,19.37.35,28.93.33,2.4.71,4.79,1.09,7.17.3,1.9,3.19,1.09,2.89-.8h0Z"/><path class="cls-1" d="m26.71,54.73c6.87,0,13.74,0,20.61,0,1.93,0,1.93-3,0-3-6.87,0-13.74,0-20.61,0-1.93,0-1.93,3,0,3h0Z"/><path class="cls-1" d="m37.23,35.2v-5.15c0-.78-.69-1.54-1.5-1.5s-1.5.66-1.5,1.5v5.15c0,.78.69,1.54,1.5,1.5s1.5-.66,1.5-1.5h0Z"/></g></svg>