<?xml version="1.0" encoding="UTF-8"?><svg id="Layer_2" xmlns="http://www.w3.org/2000/svg" viewBox="0 0 92.29 92.41"><defs><style>.cls-1{stroke-width:0px;}</style></defs><g id="Layer_1-2"><path class="cls-1" d="m36.06,44.85c-7.61.83-16.16,1.91-23.33-1.5-5.4-2.57-10.29-7.81-9.69-14.18.51-5.37,5.18-9.43,10-11.14,5.81-2.06,11.67-.96,16.8,2.32,6.27,4.02,10.61,10.51,13.83,17.09.74,1.52,3.29.45,2.74-1.16-2.2-6.41-4.59-13.26-3.7-20.14.67-5.18,3.86-10.16,8.74-12.3,4.45-1.95,9.28-.33,11.75,3.8s2.5,9.12.82,13.42c-2.43,6.21-7.65,10.88-12.48,15.26l2.36,1.82c3.02-4.82,6.94-9.08,11.55-12.41s10.31-6.77,16.03-6.2c4.6.46,7.41,4.25,7.75,8.66s-1.48,8.79-4.79,11.95c-4.5,4.29-10.62,6.41-16.38,8.41-1.04.36-1.5,1.67-.66,2.51,6.54,6.48,15.05,15.23,12.03,25.39-1.13,3.8-4.38,6.9-8.36,7.51-3.75.58-6.87-1.67-8.48-4.93-1.88-3.8-1.99-8.37-1.87-12.52.05-1.71-2.48-2.01-2.95-.4-2.5,8.69-8.32,16.3-16.11,20.92-2.11,1.25-4.59,2.59-7.13,2.4-2.07-.15-3.55-1.49-4.42-3.3-1.83-3.8-1.17-8.62.02-12.5,1.53-5,4.6-9.39,8.69-12.62,1.35-1.07-.38-3.21-1.82-2.36-5.04,3.02-10.24,5.76-15.59,8.19-2.63,1.19-5.29,2.3-7.98,3.34-2.02.78-4.75,1.97-6.91,1.04s-2.15-3.43-1.73-5.33c.49-2.2,1.61-4.23,2.85-6.08,2.51-3.75,6.02-6.79,9.98-8.92,4.52-2.42,9.63-3.55,14.75-3.18,1.93.14,1.92-2.86,0-3-10.47-.75-20.89,4.47-26.92,12.99-2.61,3.69-5.66,9.69-2.79,14.05,3.57,5.42,11.18,1.55,15.64-.31,6.97-2.91,13.72-6.31,20.2-10.19l-1.82-2.36c-4.19,3.31-7.31,7.81-9.1,12.84-1.62,4.57-2.37,10.17-.57,14.8.82,2.1,2.19,4.02,4.25,5.06,2.61,1.32,5.61.93,8.24-.13,4.86-1.96,9.26-5.43,12.73-9.32,3.9-4.38,6.79-9.58,8.41-15.22l-2.95-.4c-.23,8,1.53,20.3,11.91,20.54,4.58.1,9.04-2.72,11.34-6.61,2.8-4.73,2.44-10.8.49-15.77-2.46-6.25-7.25-11.09-11.93-15.73l-.66,2.51c5.88-2.04,11.9-4.22,16.71-8.29,4.19-3.54,6.79-8.49,6.7-14.04-.08-4.95-2.45-9.84-7.23-11.76-6.26-2.52-13.33.79-18.62,4.11-6.11,3.84-11.28,9.06-15.11,15.17-.93,1.49,1.13,2.93,2.36,1.82,4.95-4.49,10.08-9.24,12.8-15.48,2.24-5.14,2.35-11.12-.29-16.16S58.37-.88,52.88.25c-5.83,1.2-10.51,6.33-12.33,11.83-2.71,8.22.29,17.19,2.97,24.99l2.74-1.16c-5.92-12.1-17.8-25.47-32.79-21.18-5.81,1.66-11.37,5.91-13,11.94-1.89,6.96,2.14,13.68,7.76,17.54,8.13,5.59,18.53,4.64,27.83,3.62,1.9-.21,1.92-3.21,0-3h0Z"/></g></svg>