<?xml version="1.0" encoding="UTF-8"?><svg id="Layer_2" xmlns="http://www.w3.org/2000/svg" viewBox="0 0 79.66 79.73"><defs><style>.cls-1{stroke-width:0px;}</style></defs><g id="Layer_1-2"><path class="cls-1" d="m37.07,40.77c1.21-8.35.56-16.9-2.07-24.93C32.99,9.66,29.17-.65,21.04.03s-11.42,9.92-11.07,17.18,3.08,13.45,7.37,18.82c4.81,6.02,11.74,10.42,19.37,11.76l.4-2.95c-7.52-.77-15.41-1.55-22.72.92-5.89,1.99-11.4,6.03-13.51,12.07-1.85,5.28-.85,12.03,3.61,15.75,4.91,4.09,11.93,3.61,17.32.74,6.87-3.67,10.67-11.08,14.03-17.75.87-1.73-1.5-3.11-2.59-1.51-5.47,8.03-3.12,20.8,6.79,23.98,4.2,1.35,9.18.75,12.74-1.93s5.06-7.14,4.2-11.55-4.38-8.79-9.13-9.45v2.89c5.2-1.2,9.95,2.39,14.38,4.52,4.11,1.97,8.69,3.14,12.95.93,3.74-1.93,5.59-6.13,3.75-10.06-1.97-4.2-6.82-6.68-10.89-8.39-5.3-2.23-11.05-3.24-16.79-2.97l1.06,2.56c4.02-3.53,8.25-7.28,10.48-12.26,1.88-4.18,2.08-9.02.02-13.18s-6.32-6.36-10.83-5.61-8.55,4.41-10.36,8.57c-2.74,6.29-1.4,13.43-.12,19.9.37,1.89,3.26,1.09,2.89-.8-.97-4.93-2.03-10.17-.9-15.17.89-3.95,3.47-7.62,7.36-9.1,3.52-1.34,7.2-.13,9.08,3.17s1.75,7.36.28,10.71c-2.1,4.76-6.18,8.29-10.02,11.65-.97.85-.2,2.62,1.06,2.56,4.48-.21,8.92.38,13.17,1.8,3.81,1.27,8.19,3.2,10.83,6.35,1.14,1.37,1.88,3.22,1.16,4.97-.6,1.46-2.02,2.48-3.46,3.03-3.98,1.51-8.09-.61-11.57-2.45-4.44-2.36-9.17-4.81-14.34-3.62-1.36.31-1.5,2.69,0,2.89,6.76.93,9.6,10.39,4.73,15.05-2.52,2.4-6.39,3.14-9.72,2.42-3.78-.82-6.72-3.47-7.98-7.13-1.47-4.28-.77-9.05,1.76-12.77l-2.59-1.51c-2.72,5.39-5.54,11.05-10.32,14.93-3.98,3.24-10.28,5-15.02,2.35-4.44-2.48-5.72-8.07-4.45-12.73,1.44-5.29,6.2-8.96,11.17-10.76,7.2-2.6,15.01-1.77,22.46-1,1.67.17,2.06-2.65.4-2.95-11.89-2.09-21.61-11.96-24.03-23.73-1.2-5.82-.95-14.42,5.18-17.43,7.19-3.53,11.11,6.3,12.97,11.46,2.84,7.9,3.77,16.47,2.56,24.78-.27,1.89,2.62,2.7,2.89.8h0Z"/></g></svg>