<?xml version="1.0" encoding="UTF-8"?><svg id="Layer_2" xmlns="http://www.w3.org/2000/svg" viewBox="0 0 166.14 23.51"><defs><style>.cls-1{stroke-width:0px;}</style></defs><g id="Layer_1-2"><path class="cls-1" d="m.45,15.31c9.82,9.59,25.69,10.87,37.03,3.27,5.55-3.71,10.14-8.78,15.98-12.05,2.65-1.48,5.56-2.43,8.62-2.28,2.82.14,5.43,1.28,7.79,2.77,4.96,3.13,8.9,7.63,13.93,10.66s10.6,3.62,15.95,1.17,9.21-6.75,13.54-10.36,9.55-6.67,15.49-5.15c6.93,1.78,11.97,7.45,18.56,9.97,5.1,1.95,11.94,2.47,16.32-1.37,1.02-.89,1.8-2.04,2.34-3.27.75-1.75-1.83-3.28-2.59-1.51-2.29,5.34-9.01,5.22-13.77,3.78-3.05-.92-5.67-2.68-8.31-4.41-3.02-1.98-6.04-3.98-9.42-5.31-5.84-2.31-11.72-1.23-16.84,2.19-4.66,3.11-8.4,7.37-12.97,10.59s-9.32,4.53-14.42,2.33-9.26-6.73-13.76-10.12S63.86.38,57.92,1.61c-6.24,1.29-11.25,5.87-16,9.81-5.06,4.19-10.24,7.93-16.91,8.89s-13.25-.55-18.71-4.11c-1.35-.88-2.58-1.89-3.73-3.01-1.38-1.35-3.51.77-2.12,2.12H.45Z"/></g></svg>