<?xml version="1.0" encoding="UTF-8"?><svg id="Layer_2" xmlns="http://www.w3.org/2000/svg" viewBox="0 0 187.37 41.44"><defs><style>.cls-1{stroke-width:0px;}</style></defs><g id="Layer_1-2"><path class="cls-1" d="m4.93,39.28c-3.53-4.79-1.6-10.89,2.1-14.98,1.98-2.19,4.48-3.97,7.3-4.9,3.57-1.17,7.57-1.04,11.23-.35,15.94,3.02,30.07,17.12,47.18,13.25,6.52-1.48,11.56-5.98,16.27-10.46,4.36-4.15,8.91-8.82,14.96-10.29,7.84-1.9,15.43,2.58,21.76,6.67s13.42,8.98,21.52,9.78c3.72.37,7.52-.37,10.75-2.28,2.99-1.78,5.31-4.39,7.38-7.15,4.19-5.58,7.77-12.97,14.98-15.16,1.71-.52,3.44-.57,5.17-.11,1.87.5,2.66-2.39.8-2.89-7.78-2.07-14.56,3.97-18.76,9.82s-7.83,12.92-15.3,14.54c-8.1,1.76-16.22-3.35-22.65-7.6s-14.06-9.3-22.35-9.06c-6.81.19-12.31,4.13-17.15,8.57s-9.08,9.39-15.08,11.78c-8.08,3.22-17.03.56-24.64-2.73s-15.46-7.95-24.02-9.57c-3.94-.75-8.16-.95-12.06.12-2.99.82-5.73,2.45-8.02,4.53C1.97,24.73-1.16,30.93.41,36.82c.38,1.43,1.05,2.78,1.93,3.97,1.13,1.54,3.74.04,2.59-1.51h0Z"/></g></svg>