<?xml version="1.0" encoding="UTF-8"?><svg id="Layer_2" xmlns="http://www.w3.org/2000/svg" viewBox="0 0 138.64 21.86"><defs><style>.cls-1{stroke-width:0px;}</style></defs><g id="Layer_1-2"><path class="cls-1" d="m2.89,11.41C8.23,4.41,18.09,1.59,26.49,3.67c4.92,1.22,8.6,4.14,12.05,7.74,3.84,4,7.65,8.26,13.14,9.9,4.97,1.49,9.51-.16,13.09-3.71,3.11-3.08,5.61-7.43,9.95-8.95,4.96-1.75,10.39.35,15.21,1.64,2.59.7,5.23,1.31,7.92,1.45s5.58-.35,8.24-1.18c5.75-1.81,11.01-5.26,17.03-6.18,4.52-.69,10.06-.05,12.71,4.16,1.03,1.63,3.62.13,2.59-1.51-2.53-4.03-7.04-5.74-11.65-5.87-5.29-.14-10.07,1.81-14.83,3.89-5.45,2.38-10.82,4.44-16.85,3.37-5.47-.98-10.74-3.41-16.36-3.4-2.6,0-5.2.62-7.43,1.98-1.95,1.19-3.56,2.84-5.06,4.53-3.04,3.43-6.12,7.64-11.22,7.37-6.02-.31-10.34-5.43-14.19-9.45-3.56-3.72-7.41-6.86-12.41-8.36C18.32-1.94,6.71,1.5.3,9.89c-1.17,1.53,1.43,3.03,2.59,1.51h0Z"/></g></svg>