<?xml version="1.0" encoding="UTF-8"?><svg id="Layer_2" xmlns="http://www.w3.org/2000/svg" width="727.79" height="501.66" viewBox="0 0 727.79 501.66"><defs><style>.cls-1{fill:#6184a0;stroke-width:0px;}</style></defs><g id="design"><path class="cls-1" d="m73.55,226.25c-45.16.64-77.82,40.27-73.09,78.32,4.82,38.8,47.72,69.46,92.24,57.43,3.68,14.73,18.97,68.41,69.61,99.2,58.58,35.61,140.52,26.05,201.88-26.11,7.46,9.46,49.48,60.88,120.08,66.13,66.18,4.92,131.16-32.68,165.33-95.72,3.44-.39,49.42-6.45,69.61-46.99,16.7-33.54,8.59-76.27-20.88-104.42,14.56-42.17,3.47-88.25-27.85-116.6-38.58-34.93-88.58-25.48-93.98-24.36-25.11-58.19-79.5-95.92-137.49-95.72-59.88.2-98.81,40.77-106.16,48.73C304.16,10.44,241.51-12.84,193.63,6.96c-34.97,14.47-58.97,50.65-62.65,92.24-38.45,2.16-69.68,27.92-76.58,60.91-7.34,35.13,16.19,62.77,19.14,66.13Z"/></g></svg>