<?xml version="1.0" encoding="UTF-8"?><svg id="Layer_2" xmlns="http://www.w3.org/2000/svg" width="300.22" height="186.56" viewBox="0 0 300.22 186.56"><defs><style>.cls-1{fill:#6184a0;stroke-width:0px;}</style></defs><g id="design"><path class="cls-1" d="m19.44,52.2c9.53-17.8,17.8-25.07,38.36-29.92,7.73-1.82,30.05-1.54,46.82,7.46,1.13-2.1,14.66-26.32,43.37-29.43,26.72-2.89,44.41,14.9,46.47,17.04,16.55-15.68,41.41-16.24,56.53-3.1,12.06,10.48,16.45,28.39,10.84,44.92,19.85,3.08,35.2,17.92,37.95,35.62,3.41,22.01-13.16,45.29-38.72,49.56-1.82,4.12-13.8,30.03-42.59,38.72-25.77,7.78-54.73,2.97-73.57-18.92-15.16,18.96-40.92,26.36-62.72,18.37-14.89-5.46-35.41-18.43-30.92-39.94-23.32,15.9-41.69-1.84-49.13-17.39-5.36-11.2-.29-28.96,11.55-40.95-2.64-4.12-9.35-9.8-6.92-19.33,2.01-7.9,6.6-10.76,12.68-12.72Z"/></g></svg>