<?xml version="1.0" encoding="UTF-8"?><svg id="Layer_2" xmlns="http://www.w3.org/2000/svg" width="878.31" height="554.21" viewBox="0 0 878.31 554.21"><defs><style>.cls-1{fill:#6184a0;stroke-width:0px;}</style></defs><g id="design"><path class="cls-1" d="m98.49,109.74C119.78,55.76,169.23,18.47,225.53,14.02c77.05-6.09,125.01,52.64,128.79,57.43C380.68,25.66,430.38-1.88,483.11.1c53.12,1.99,100.91,33.62,123.57,81.8,2.49-2.44,42.26-40.22,93.98-27.85,42.04,10.06,73.76,48.92,76.58,95.72,4.06.58,67.84,10.78,92.24,66.13,21.45,48.67,3.13,111.07-46.99,146.19,20.45,49.89,5.44,106.64-34.81,137.49-45.66,35-114.37,29.46-156.63-15.66-8.53,11.28-44.92,56.68-109.64,67.87-87.98,15.21-150.72-46.22-156.63-52.21-29.42,30.38-74.34,40.02-113.12,24.36-40.38-16.3-66.36-56.9-64.39-100.94-51.45,43.86-122.19,33.05-149.67-6.96-19.74-28.74-17.18-72.56,6.96-107.9C7.41,280.2-8.57,232.09,4.51,188.06c12.56-42.3,49.67-73.26,93.98-78.32Z"/></g></svg>