<?xml version="1.0" encoding="UTF-8"?><svg id="Layer_2" xmlns="http://www.w3.org/2000/svg" width="1129.73" height="646.27" viewBox="0 0 1129.73 646.27"><defs><style>.cls-1{fill:none;stroke:#f9fafa;stroke-miterlimit:10;stroke-width:6px;}</style></defs><g id="Layer_1-2"><path class="cls-1" d="m168.8,314.95c-36.94-69.04-13.14-164.31,51.93-207.86,65.07-43.55,162.22-29.24,211.96,31.23,14.78,17.97,25.87,41.64,19.96,64.14-5.91,22.5-35.3,38.34-53.87,24.32-21.21-16.02-10.48-49.84,4.45-71.83,40.99-60.38,100.67-107.87,168.71-134.25,53.19-20.62,116.5-27.41,165.01,2.61s68.28,106.46,26.93,145.76c.73-77.93,85.68-143.03,161.12-123.48s118.07,117.73,80.85,186.19c-7.42,13.66-18.19,26.56-32.98,31.36-14.79,4.8-33.8-1.44-38.86-16.13-7.99-23.18,21.19-42.28,45.64-44.14,65.28-4.98,128.15,46.03,143.18,109.75,15.03,63.72-14.57,133.73-66.79,173.23-52.21,39.49-123.41,49.69-186.89,33.69-20.18-5.09-40.42-13.08-54.81-28.12-14.38-15.04-21.51-38.47-12.77-57.35,15.82-34.18,73.09-27.25,91.18,5.79,18.09,33.04,5.45,75.3-17,105.54-62.05,83.6-179.67,100.53-283.74,97.54-38.68-1.11-78.37-4.28-113.29-20.97-34.91-16.69-64.41-49.66-66.66-88.29s30.69-78.73,69.23-75.34c-15.73,78.66-98.58,125.32-176.97,142.36-46.56,10.12-96.47,13.33-140.76-4.24-44.29-17.57-81.15-59.99-80.44-107.63s48.97-92.28,94.91-79.63c20.44,5.63,38.93,24.78,35.92,45.77-4.52,31.46-47.19,38.58-78.42,32.7-36.46-6.86-72.61-21.24-98.77-47.54-26.16-26.31-40.67-66-30.48-101.67,14.36-50.29,69.67-76.48,120.79-87.56,27.23-5.9,56.77-9.08,82.02,2.68,25.25,11.77,42.97,43.36,30.8,68.42-8.72,17.96-31.94,27.3-50.66,20.39s-30.31-29.1-20.43-27.45Z"/></g></svg>