<?xml version="1.0" encoding="UTF-8"?><svg id="Layer_2" xmlns="http://www.w3.org/2000/svg" viewBox="0 0 1920 79.68"><defs><style>.cls-1{;stroke-width:0px;}</style></defs><g id="Layer_1-2"><path class="cls-1" d="m0,0v58.93c5.9-.42,21.55-4.63,36.75-50.82,1.86,29.74,27.86,52.68,57.6,50.82,28.36-1.77,50.52-25.5,50.91-53.49,1.76,36.26,33.26,61,60.91,56.88,23.35-3.48,43.95-27.54,44.05-57.6.05,35.1,18.87,61.84,37.27,64.38,17.87,2.47,43.24-16.8,51.51-50.33.84,22.15,13.47,40.95,29.81,46.94,24.7,9.05,61.2-9.92,67.76-47.44,3.68,28.72,27.45,50.13,54.21,50.82,29,.75,55.18-23,57.44-54.1-.67,31.39,21.83,53.98,40.82,54.1,20.57.13,45.46-26.03,40.66-60.99,4.19,27.47,27.79,47.57,54.21,47.44,27-.14,50.49-21.39,53.82-49.15-1.34,30.41,17.18,55.15,37.66,59.31,25.44,5.17,60.08-20.13,60.99-60.99.35,24.49,14.89,45.23,33.88,50.82,25.4,7.49,58.56-12.17,64.38-47.44,6.84,41.43,43.75,62.28,67.76,54.21,17.64-5.92,30.74-28.26,30.49-54.21,1.45,41.16,37.77,69.65,71.15,64.38,26.37-4.17,48.64-29.05,50.66-60.17-.03,26.41,20.6,46.5,40.82,46.62,20.88.13,42.18-21.03,41.23-48.11,5.08,37.97,39.76,61.07,67.19,54.89,22.53-5.08,41.49-30.22,40.83-60.57,2.22,30.94,26.59,53.55,50.65,53.79,23.74.24,47.66-21.29,51.19-50.31,3.7,19.68,18.28,35.78,36.91,40.15,26.97,6.33,56.63-13.27,60.99-44.05-5.09,35.05,22.18,64.38,50.82,64.38,28.64,0,55.92-29.33,50.82-64.38,9.29,51.08,41.63,78.75,60.99,74.54,16.66-3.62,30.36-32.31,30.49-67.76,2.6,25.9,21.16,46.6,44.05,50.82,28.01,5.17,58.23-15.15,64.38-47.44.34,1.34,8.95,33.86,33.88,40.66,12.49,3.41,27.31-.14,40.05-9.47V0H0Z"/></g></svg>