<?xml version="1.0" encoding="UTF-8"?><svg id="Layer_2" xmlns="http://www.w3.org/2000/svg" viewBox="0 0 1920 151.41"><defs><style>.cls-1{fill:#686868;stroke-width:0px;}</style></defs><g id="Layer_1-2"><path class="cls-1" d="m1542.25,123.85c125.75-7.37,186.61-117.92,189.74-123.85h-406.59c42.9,80.54,127.92,129.07,216.85,123.85Z"/><path class="cls-1" d="m1920,151.41V0h-188.01c12.86,100.92,96.11,147.26,188.01,151.41Z"/><path class="cls-1" d="m0,90.1c38.76,20.14,87.1,29.53,132.75,20.2,71.67-14.65,111.6-70.32,121.98-85.84,2.69,5.66,45.84,92.74,140.05,103.91,75.34,8.93,150.91-34.54,185.22-108.42,4.12,7.35,58.27,100.27,167.15,108.42,80.18,6,157.87-36.38,198.78-108.42,36.77,69.31,108.21,112.99,185.22,112.94,84.48-.05,161.71-52.71,194.26-132.89H0v90.1Z"/></g></svg>