<?xml version="1.0" encoding="UTF-8"?><svg id="Layer_2" xmlns="http://www.w3.org/2000/svg" viewBox="0 0 1611.1 116.46"><defs><style>.cls-1{stroke-width:0px;}</style></defs><g id="Layer_1-2"><path class="cls-1" d="m1499.11,1.26c-97.33,8.69-106.82,57.7-187.37,57.6-84.89-.1-97.54-54.55-183.07-54.21-83.29.33-94.84,52.07-178.76,52.52-83.97.44-95.18-51.24-180.91-52.52-87.32-1.3-101.07,51.94-189.53,50.82-84.07-1.06-94.34-49.45-176.6-49.13-86.04.33-97.71,53.34-183.07,54.21-81.24.83-91.54-46.97-187.37-52.52-1.62-.09-14.2-.7-32.43.3v108.13h1611.1V10.44c-35.48-9.61-76.51-12.35-111.99-9.18Z"/></g></svg>