<?xml version="1.0" encoding="UTF-8"?><svg id="Layer_2" xmlns="http://www.w3.org/2000/svg" width="98.77" height="98.77" viewBox="0 0 98.77 98.77"><defs><style>.cls-1{fill:none;}.cls-1,.cls-2{stroke-width:0px;}.cls-2{fill:#6184a0;}</style></defs><g id="design"><rect class="cls-1" width="98.77" height="98.77"/><path class="cls-2" d="m.2,13.75h7.51v22.7c.08.03.16.05.25.08.21-.27.42-.54.63-.81,4.22-5.32,13.56-6.15,18.64-1.63,2.79,2.48,3.39,5.8,3.4,9.3.03,7.07,0,14.14,0,21.2,0,.78,0,1.56,0,2.45h-7.67c0-.48,0-.96,0-1.44,0-6.53.04-13.07-.03-19.6-.02-1.58-.24-3.2-.64-4.73-.63-2.41-2.39-3.65-4.84-3.9-5.6-.57-9.64,3.09-9.69,8.9-.06,7.44-.02,14.87-.02,22.31,0,3.7,0,7.4,0,11.09,0,.4,0,.8,0,1.27H.2V13.75Z"/><path class="cls-2" d="m65.48,51.65h-25.3c-.89,5.87,4.09,10.84,10.13,10.32,3.43-.3,5.86-1.89,7.24-5.08.14-.32.59-.71.91-.72,2.13-.06,4.26-.03,6.57-.03-.16.65-.25,1.2-.44,1.71-2.19,6.16-6.78,9.29-13.07,10.06-4.31.53-8.45-.15-12.12-2.66-4.23-2.89-6.21-7.09-6.83-12.03-.72-5.79.08-11.27,3.83-15.95,4.14-5.16,9.66-7.04,16.04-5.73,6.29,1.28,10.37,5.34,12.19,11.44.68,2.28.73,4.75,1.02,7.15.06.46-.11.95-.18,1.52Zm-25.35-5.19h17.64c.03-5.12-4.12-9.32-8.98-9.16-4.97.17-9.02,4.41-8.65,9.16Z"/><path class="cls-2" d="m62.86,32.14c2.76,0,5.26.03,7.76-.01.84-.01.86.59,1.04,1.11,2.72,7.87,5.44,15.74,8.16,23.61.15.42.32.84.57,1.49.4-1.15.75-2.08,1.06-3.03,2.48-7.35,4.97-14.69,7.41-22.04.27-.82.61-1.17,1.53-1.14,2.21.07,4.42.02,6.72.02-.04.3-.04.5-.1.68-4.69,12.74-9.35,25.49-14.1,38.21-.77,2.06-1.81,4.05-2.99,5.9-1.51,2.37-3.83,3.75-6.66,3.91-2.31.13-4.65-.01-7.03-.04v-6.68c.84.12,1.63.23,2.42.35,3.06.48,4.9-.54,6-3.41.44-1.15.86-2.31,1.15-3.5.12-.5,0-1.13-.2-1.63-4.05-10.79-8.13-21.57-12.2-32.35-.16-.41-.3-.83-.52-1.45Z"/></g></svg>