<?xml version="1.0" encoding="UTF-8"?><svg id="Layer_2" xmlns="http://www.w3.org/2000/svg" width="56.58" height="146.47" viewBox="0 0 56.58 146.47"><defs><style>.cls-1{fill:none;stroke:#000;stroke-miterlimit:10;}</style></defs><g id="Layer_1-2"><path class="cls-1" d="m56.12,146.28c-10.74-26.47-21.63-53.59-22.87-82.13-.23-5.29-.13-10.64-1.36-15.79s-4.03-10.19-8.66-12.76-11.24-1.85-14.27,2.48-.36,11.74,4.91,12.14c5.03.39,8.51-4.68,11.32-8.87,3.29-4.89,7.64-9.69,13.44-10.74s12.71,3.73,11.65,9.53c-.98,5.35-7.89,7.72-13.07,6.06s-8.98-5.96-12.73-9.9-8.13-7.89-13.53-8.47S-.58,31.94.66,37.23c1.23,5.29,8.68,6.8,13.41,4.13s7.36-7.83,9.93-12.61,5.76-9.78,10.87-11.61,12.19,1.78,11.58,7.17c-.53,4.62-6.22,7.06-10.77,6.11s-8.24-4.14-12.02-6.84-8.37-5.07-12.91-4.04-7.8,7.13-4.64,10.55c3.21,3.48,9.34.89,11.85-3.12,2.51-4.01,3.11-9.01,5.71-12.96,1.9-2.89,5.01-5.15,8.47-5.36s7.1,2.01,7.91,5.38-1.96,7.3-5.42,7.13c-3.65-.18-5.8-3.98-8.23-6.71-2.49-2.79-6.05-4.81-9.79-4.72s-7.48,2.69-8.22,6.36,2.32,7.82,6.05,7.61c3.41-.19,5.83-3.45,6.98-6.66s1.61-6.75,3.54-9.56c2.1-3.06,6.49-4.83,9.68-2.92s2.86,7.89-.79,8.59c-5.66,1.08-7.02-9.24-12.65-10.43-3.61-.77-6.96,3.53-5.88,7.06s5.43,5.39,8.98,4.39c3.13-.88,5.68-3.82,5.75-7.07S27.44.64,24.19.5s-6.3,3.16-5.61,6.34,5.24,4.83,7.63,2.62"/></g></svg>