<?xml version="1.0" encoding="UTF-8"?><svg id="Layer_2" xmlns="http://www.w3.org/2000/svg" width="50.44" height="202.63" viewBox="0 0 50.44 202.63"><defs><style>.cls-1{fill:none;stroke:#000;stroke-miterlimit:10;}</style></defs><g id="Layer_1-2"><path class="cls-1" d="m.42,202.35c14.41-21.52,14.11-49.44,11.66-75.22-2.45-25.78-6.43-52.55,2.13-77,2.55-7.28,6.65-14.64,13.63-17.91s17.13-.2,18.74,7.34c.98,4.62-1.78,9.74-6.18,11.46s-9.9-.19-12.31-4.25c-2.17-3.67-1.81-8.25-2.86-12.38-1.27-4.99-4.92-9.47-9.82-11.05-4.9-1.58-10.87.22-13.54,4.61s-1.15,11.01,3.47,13.27c6.25,3.06,13.31-2.31,17.56-7.82,4.25-5.51,8.73-12.2,15.67-12.78,6.79-.56,13.03,6.91,10.98,13.41-2.05,6.5-11.86,8.88-16.46,3.85-4.55-4.98-2.67-13-5.1-19.3-2.49-6.46-10.29-10.48-16.88-8.37S.52,20.57,3.3,26.91s12,8.87,17.4,4.53c5.58-4.48,5.88-13.58,11.76-17.66,3.51-2.44,8.76-2.23,11.78.78,3.03,3.01,3.1,8.62-.12,11.43-3.22,2.81-9.11,1.69-10.76-2.25-1.36-3.24.14-6.93.03-10.44-.17-5.49-5.06-10.54-10.55-10.48-5.49.05-10.38,5.61-9.38,11.01s8.03,8.78,12.71,5.91c4.51-2.77,5.47-9.27,9.84-12.25,2.97-2.02,7.35-1.8,9.91.72s2.72,7.16.15,9.66-7.47,2.04-9.3-1.04c-2.36-3.96.65-9.45-1.52-13.51-2.3-4.28-9.71-3.45-11.72.97s1.13,10.06,5.75,11.58c4,1.32,8.91-.23,11.04-3.87s.77-9.02-3.03-10.85-9.13.9-9.48,5.11,5.05,7.76,8.6,5.48"/></g></svg>