<?xml version="1.0" encoding="UTF-8"?><svg id="Layer_2" xmlns="http://www.w3.org/2000/svg" width="76.81" height="179.54" viewBox="0 0 76.81 179.54"><defs><style>.cls-1{fill:none;stroke:#000;stroke-miterlimit:10;}</style></defs><g id="Layer_1-2"><path class="cls-1" d="m3.58,179.37c-6.72-19.21-1.5-40.58,6.62-59.23,8.12-18.66,19.13-36.18,24.64-55.76,1.63-5.78,2.77-11.73,5.16-17.25s6.25-10.68,11.74-13.12,12.76-1.4,16.31,3.44,1.4,13.17-4.44,14.59c-4.93,1.2-9.87-2.62-12.11-7.17-2.24-4.55-2.61-9.76-3.82-14.69s-3.66-10.06-8.3-12.11c-4.87-2.16-11.18.16-13.71,4.85s-1.14,11.05,2.96,14.46,10.42,3.68,14.94.86c6-3.74,8.38-11.67,14.42-15.33,4.43-2.68,10.56-2.37,14.48,1.01,3.92,3.38,5.07,9.67,2.32,14.06s-9.22,6.03-13.57,3.23c-9.2-5.93-3.04-22.64-11.45-29.64-5.41-4.5-15.2-.81-16.29,6.14-1.09,6.95,7.1,13.46,13.62,10.84,6.52-2.62,9.12-11.43,15.84-13.46,4.91-1.48,10.92,2.42,10.86,7.55s-7.18,8.77-11,5.35c-3.96-3.55-1.93-10.07-3.36-15.19-1.1-3.92-4.71-7.14-8.78-7.32s-8.14,3.06-8.45,7.12,3.65,8.02,7.66,7.32c4.56-.79,6.65-5.97,9.77-9.39,2.13-2.33,5.16-4,8.31-3.86s6.27,2.4,6.79,5.51-2.24,6.52-5.38,6.14c-3.59-.43-5.22-4.65-5.85-8.21s-1.42-7.77-4.73-9.23c-3.76-1.66-8.3,2.33-8,6.43s4.23,7.27,8.31,7.79c5,.64,10.82-3.42,9.91-8.38-.8-4.38-7.33-6.28-10.36-3.02s-.67,9.63,3.75,10.12"/></g></svg>