<?xml version="1.0" encoding="UTF-8"?><svg id="Layer_2" xmlns="http://www.w3.org/2000/svg" width="175.89" height="337.61" viewBox="0 0 175.89 337.61"><defs><style>.cls-1{fill:none;stroke:#a8a8a8;stroke-miterlimit:10;}</style></defs><g id="Layer_1-2"><path class="cls-1" d="m74.33,334.85c13.34-19.91,6.6-46.82-3.28-68.65s-22.79-44.1-20.43-67.95c2.58-26.12,23.32-48.96,21.3-75.13-1.55-20.12-16.56-38.1-14.89-58.21.96-11.5,7.29-21.78,10.74-32.79s3.03-25.03-6.4-31.7"/><path class="cls-1" d="m74.52,334.85c-16.45-14.21-15.6-39.93-10.02-60.93,5.59-21,14.6-42.5,9.83-63.7-4.72-20.97-22.63-39.8-18.17-60.83,4.06-19.12,25.38-30.86,29.5-49.97,1.79-8.32.03-16.96.25-25.47.43-16.47,8.18-31.75,15.77-46.38"/><path class="cls-1" d="m78.57,336.65c-15.22,3.31-29.11-11.83-31.62-27.2-2.51-15.37,2.53-30.81,5.1-46.17s1.91-33.06-9.28-43.89c-9.47-9.16-24.58-11.38-32.63-21.81-8.06-10.45-6.17-25.41-2-37.92,4.17-12.52,10.31-24.95,9.54-38.12-.81-13.92-9.19-26.09-17.27-37.45"/><path class="cls-1" d="m77.31,337.11c-4.61-25.82,5.54-52.19,19.66-74.29,14.12-22.1,32.25-41.43,46.34-63.55,18.06-28.36,29.17-61.12,32.08-94.62"/></g></svg>