<?xml version="1.0" encoding="UTF-8"?><svg id="Layer_2" xmlns="http://www.w3.org/2000/svg" width="106.02" height="320.06" viewBox="0 0 106.02 320.06"><defs><style>.cls-1{fill:none;stroke:#000;stroke-miterlimit:10;}</style></defs><g id="Layer_1-2"><path class="cls-1" d="m74.92.28c-14.99,21.96-16.12,50.58-12.64,76.94s11,52.28,11.42,78.86c.43,26.99-6.48,53.48-10.69,80.15s-5.53,54.99,3.09,80.26c-12.1-17.56-11.85-41.18-5.51-61.53,6.34-20.36,18.04-38.53,27.92-57.43,9.88-18.89,18.2-39.58,16.85-60.86-1.42-22.31-13.18-45.6-3.76-65.87"/><path class="cls-1" d="m65.41,312.36c-18.13-20.82-24.04-51.57-14.92-77.63,4.88-13.94,13.56-26.21,19.43-39.76,5.86-13.55,8.65-29.79,1.53-42.72-8.79-15.97-29.18-21.45-41.46-34.92-12.04-13.2-14.61-34.16-6.12-49.88"/><path class="cls-1" d="m.18,151.24c29.73,11.21,46.78,43.05,53.24,74.16s5.01,63.44,11.34,94.57"/></g></svg>