<?xml version="1.0" encoding="UTF-8"?><svg id="Layer_2" xmlns="http://www.w3.org/2000/svg" width="123.5" height="316.18" viewBox="0 0 123.5 316.18"><defs><style>.cls-1{fill:none;stroke:#000;stroke-miterlimit:10;}</style></defs><g id="Layer_1-2"><path class="cls-1" d="m34.15,295.12C25.81,193.75,110.02,101.21,99.37.05"/><path class="cls-1" d="m48.54,298.45c-4.7-44.77,9.34-89.37,26.58-130.96,17.25-41.59,38.01-82.14,47.88-126.07"/><path class="cls-1" d="m51.53,315.35c-10.92-37.3,3.44-77.2,21.57-111.58,18.13-34.38,40.6-67.64,47.46-105.89"/><path class="cls-1" d="m51.12,52.58c11.13,40.15-.66,82.62-11.16,122.94-10.5,40.32-19.54,84.18-.68,124.83C9.83,260.44,30.08,198.56.4,158.81"/><path class="cls-1" d="m53.06,316.08c-4.69-23.17,6.62-46.33,18.24-66.92,11.63-20.59,24.35-42.47,22.71-66.06"/></g></svg>