<?xml version="1.0" encoding="UTF-8"?><svg id="Layer_2" xmlns="http://www.w3.org/2000/svg" width="84.79" height="227.03" viewBox="0 0 84.79 227.03"><defs><style>.cls-1{fill:none;stroke:#000;stroke-miterlimit:10;}</style></defs><g id="Layer_1-2"><path class="cls-1" d="m36.9.06c-8.47,74.05,47.94,143.91,36.57,219.93,13.99-25.4,12.2-56.45,6.93-84.96-5.27-28.51-13.68-56.99-11.67-85.92"/><path class="cls-1" d="m16.98,77.98c-6.99,34.5,4.11,72.15,28.68,97.35,6.48,6.64,13.84,12.49,19.42,19.89s9.3,16.97,7.07,27.45c-.55-28.1-9.08-56-24.33-79.61"/><path class="cls-1" d="m71.04,224.23c-1.26-6.63-6.58-11.83-12.47-15.14-5.88-3.31-12.46-5.16-18.62-7.93C17.55,191.06,1.69,167.78.5,143.23"/></g></svg>