<?xml version="1.0" encoding="UTF-8"?><svg id="Layer_2" xmlns="http://www.w3.org/2000/svg" viewBox="0 0 319.79 342.06"><defs><style>.cls-1{fill:#f9fafa;}.cls-1,.cls-2,.cls-3,.cls-4,.cls-5,.cls-6,.cls-7{stroke-width:0px;}.cls-2{fill:#6fa0c7;}.cls-3{fill:#101112;}.cls-4{fill:#a8a8a8;}.cls-5{fill:#dbdbdb;}.cls-6{fill:#a5bfd3;}.cls-7{fill:#fff;}</style></defs><g id="Layer_2-2"><polyline class="cls-4" points="315.35 269.08 313.91 266.52 315.33 265.44"/><path class="cls-1" d="m310.97,103.08L134.27,1.06c-4.87-2.81-8.82.17-8.82,6.67v126.09c0,6.49,3.95,14.04,8.82,16.85l176.7,102.02c4.87,2.81,8.82-.17,8.82-6.67v-126.09c0-6.49-3.95-14.04-8.82-16.85Zm4.6,139.93c0,3.85-2.34,5.62-5.23,3.95l-175.25-101.18c-2.89-1.67-5.23-6.14-5.23-9.98V10.52c0-3.85,2.34-5.62,5.23-3.95l175.25,101.18c2.89,1.67,5.23,6.14,5.23,9.98v125.27Z"/><path class="cls-1" d="m202.95,45.96h0c0-2.9,1.76-4.23,3.94-2.98l31.46,18.16c2.17,1.25,3.94,4.62,3.94,7.52h0c0,2.9-1.76,4.23-3.94,2.98l-31.46-18.16c-2.17-1.25-3.94-4.62-3.94-7.52Z"/><path class="cls-3" d="m312.2,264.45l-177.79-102.65c-4.67-2.69-12.82-2.36-18.21.75L4.46,227.08c-3.12,1.8-4.63,4.14-4.44,6.31.14,1.58,1.17,3.07,3.13,4.2l177.79,102.65c4.67,2.69,12.82,2.36,18.21-.75l111.74-64.52c5.39-3.11,5.97-7.82,1.31-10.51Z"/><path class="cls-1" d="m4.46,223.75l111.74-64.52c5.39-3.11,13.54-3.45,18.21-.75l177.79,102.65c4.67,2.69,4.08,7.4-1.31,10.51l-111.74,64.52c-5.39,3.11-13.54,3.45-18.21.75L3.15,234.27c-4.67-2.69-4.08-7.4,1.31-10.51Z"/><path class="cls-2" d="m68.95,198.07l48.17-27.81c5.39-3.11,13.54-3.45,18.21-.75l157.8,91.1c4.67,2.69,4.08,7.4-1.31,10.51l-48.17,27.81c-5.39,3.11-13.54,3.45-18.21.75l-157.8-91.1c-4.67-2.69-4.08-7.4,1.31-10.51Z"/><path class="cls-6" d="m68.8,254.35l24.9-14.38c5.39-3.11,13.54-3.45,18.21-.75l59.8,34.52c4.67,2.69,4.08,7.4-1.31,10.51l-24.9,14.38c-5.39,3.11-13.54,3.45-18.21.75l-59.8-34.52c-4.67-2.69-4.08-7.4,1.31-10.51Z"/><path class="cls-6" d="m188.81,342.05l-.07-3.32s3.54.09,7.44-1.23c0,0,1.04-.24,3.8-1.83l110.91-64.03s4.01-1.86,4.46-5.6v3.56s-.27,3.22-4.85,5.6l-19.11,11.02-92.55,53.51s-3.13,1.62-6.36,2.1c0,0-2.29.27-3.67.22Z"/><path class="cls-7" d="m188.31,338.73s.34,0,.99,0l.09,3.33s-.65.02-1.08,0v-3.32Z"/><polygon class="cls-5" points="189.53 338.71 189.61 342.05 189.73 342.05 189.62 338.71 189.53 338.71"/><polygon class="cls-7" points="189.58 338.71 189.66 342.05 189.77 342.05 189.66 338.71 189.58 338.71"/></g></svg>