<?xml version="1.0" encoding="utf-8"?>
<!-- Generator: Adobe Illustrator 28.0.0, SVG Export Plug-In . SVG Version: 6.00 Build 0)  -->
<svg version="1.1" id="Layer_2_00000090267636718658941770000004229944600325418142_"
	 xmlns="http://www.w3.org/2000/svg" xmlns:xlink="http://www.w3.org/1999/xlink" x="0px" y="0px" viewBox="0 0 357.8 362.9"
	 style="enable-background:new 0 0 357.8 362.9;" xml:space="preserve">
<style type="text/css">
	.st0{fill:#A8A8A8;}
	.st1{fill:#F9FAFA;stroke:#FFFFFF;stroke-width:3;stroke-miterlimit:10;}
	.st2{fill:#F9FAFA;}
	.st3{fill:#101112;}
	.st4{fill:#6FA0C7;}
	.st5{fill:#A5BFD3;}
	.st6{fill:#FFFFFF;}
</style>
<g>
	<g id="Layer_2-2">
		<polyline class="st0" points="334.4,281.1 333,278.5 334.4,277.4 		"/>
		<path class="st1" d="M330,115.1l-176.7-102c-4.9-2.8-8.8,0.2-8.8,6.7v126.1c0,6.5,4,14,8.8,16.9l176.7,102
			c4.9,2.8,8.8-0.2,8.8-6.7V131.9C338.8,125.4,334.9,117.9,330,115.1L330,115.1z M334.6,255c0,3.8-2.3,5.6-5.2,3.9L154.1,157.8
			c-2.9-1.7-5.2-6.1-5.2-10V22.5c0-3.9,2.3-5.6,5.2-4l175.2,101.2c2.9,1.7,5.2,6.1,5.2,10V255L334.6,255z"/>
		<path class="st2" d="M222,58L222,58c0-2.9,1.8-4.2,3.9-3l31.5,18.2c2.2,1.2,3.9,4.6,3.9,7.5l0,0c0,2.9-1.8,4.2-3.9,3L226,65.5
			C223.8,64.2,222,60.9,222,58L222,58z"/>
		<path class="st3" d="M332.7,279L154.2,173.3c-4.7-2.8-12.9-2.4-18.3,0.8L21,238.2c0.1,7.3,0.1,10.2,0.2,12.4
			c0.1,1.6,1.4,3.3,3.4,4.4l176.3,101.9c4.7,2.8,12.9,2.4,18.3-0.8l112.2-66.4C336.8,286.6,333.8,281.9,332.7,279L332.7,279z"/>
		<path class="st2" d="M25.4,232.6L135.4,171c5.3-3,13.4-3.2,18.1-0.5l177.8,102.7c4.7,2.7,4.1,7.3-1.2,10.2L220.1,345
			c-5.3,3-13.4,3.2-18.1,0.5L24.2,242.8C19.5,240.1,20,235.5,25.4,232.6z"/>
		<path class="st4" d="M89,208.3l47.4-26.5c5.3-3,13.4-3.2,18.1-0.5l157.8,91.1c4.7,2.7,4.1,7.3-1.2,10.2l-47.4,26.5
			c-5.3,3-13.4,3.2-18.1,0.5L87.9,218.6C83.2,215.9,83.7,211.3,89,208.3L89,208.3z"/>
		<path class="st5" d="M89.6,263.3l24.5-13.7c5.3-3,13.4-3.2,18.1-0.5l59.8,34.5c4.7,2.7,4.1,7.3-1.2,10.2l-24.5,13.7
			c-5.3,3-13.4,3.2-18.1,0.5l-59.8-34.5C83.8,270.9,84.3,266.3,89.6,263.3z"/>
		<path class="st5" d="M218.9,356.4c0,0-2.4,1.5-4.9,1.9c0,0-2.8,0.7-5.6,0.7v-11.6c0,0,2.2,0.4,6.5-0.4c0,0,2.8-0.6,5.5-2.1
			L330,283.1c0,0,4-1.8,4.4-5.4l0.3,6.2c0,1-0.1,2.1-0.4,3c-0.6,1.7-1.9,4-4.6,5.4"/>
		<path class="st6" d="M207.6,347.2c0,0,1.2,0.2,3.3,0.1l0.4,11.4c0,0-2.2,0.4-3.6,0.1L207.6,347.2L207.6,347.2z"/>
		<path class="st6" d="M201.9,105.9l7.5,4.3v9.8l8.2,4.8v-9.8l7.6,4.4v28l-7.6-4.4v-11.3l-8.2-4.8v11.3l-7.5-4.4V105.9z"/>
		<path class="st6" d="M230.2,122.3l20.2,11.7v6l-12.6-7.3v4.4l11.7,6.8v5.7l-11.7-6.8v5.5l13,7.5v6.3l-20.6-11.9L230.2,122.3
			L230.2,122.3z"/>
		<path class="st6" d="M252.4,135.1l8.4,4.8l4.9,12.3l4.9-6.6l8.3,4.8l-9.5,10.8v11.7l-7.6-4.4v-11.7L252.4,135.1L252.4,135.1z"/>
		<path class="st5" d="M199.9,106.6l7.5,4.3v9.8l8.2,4.8v-9.8l7.6,4.4v28l-7.6-4.4v-11.3l-8.2-4.8v11.3l-7.5-4.3V106.6z"/>
		<path class="st5" d="M228.3,122.9l20.2,11.7v6l-12.6-7.3v4.4l11.7,6.8v5.7l-11.7-6.8v5.5l13,7.5v6.3l-20.6-11.9L228.3,122.9
			L228.3,122.9z"/>
		<path class="st5" d="M250.4,135.7l8.4,4.8l4.9,12.3l4.9-6.6l8.3,4.8l-9.5,10.8v11.7l-7.6-4.4v-11.7L250.4,135.7L250.4,135.7z"/>
	</g>
	<ellipse transform="matrix(0.8629 -0.5054 0.5054 0.8629 -4.028 139.1052)" class="st4" cx="254.3" cy="77" rx="2" ry="3.4"/>
	<ellipse transform="matrix(0.8629 -0.5054 0.5054 0.8629 -4.0582 139.1186)" class="st5" cx="254.3" cy="77" rx="1.3" ry="2.2"/>
</g>
</svg>
