<?xml version="1.0" encoding="UTF-8"?><svg id="Layer_2" xmlns="http://www.w3.org/2000/svg" viewBox="0 0 317.84 346.92"><defs><style>.cls-1{stroke:#fff;stroke-miterlimit:10;stroke-width:3px;}.cls-1,.cls-2{fill:#f9fafa;}.cls-2,.cls-3,.cls-4,.cls-5,.cls-6,.cls-7{stroke-width:0px;}.cls-3{fill:#6fa0c7;}.cls-4{fill:#101112;}.cls-5{fill:#a8a8a8;}.cls-6{fill:#a5bfd3;}.cls-7{fill:#fff;}</style></defs><g id="Layer_2-2"><polyline class="cls-5" points="313.4 269.08 311.96 266.52 313.39 265.44"/><path class="cls-1" d="m309.02,103.08L132.32,1.06c-4.87-2.81-8.82.17-8.82,6.67v126.09c0,6.49,3.95,14.04,8.82,16.85l176.7,102.02c4.87,2.81,8.82-.17,8.82-6.67v-126.09c0-6.49-3.95-14.04-8.82-16.85Zm4.6,139.93c0,3.85-2.34,5.62-5.23,3.95l-175.25-101.18c-2.89-1.67-5.23-6.14-5.23-9.98V10.52c0-3.85,2.34-5.62,5.23-3.95l175.25,101.18c2.89,1.67,5.23,6.14,5.23,9.98v125.27Z"/><path class="cls-2" d="m201.01,45.96h0c0-2.9,1.76-4.23,3.94-2.98l31.46,18.16c2.17,1.25,3.94,4.62,3.94,7.52h0c0,2.9-1.76,4.23-3.94,2.98l-31.46-18.16c-2.17-1.25-3.94-4.62-3.94-7.52Z"/><path class="cls-4" d="m311.68,266.97l-178.49-105.64c-4.68-2.77-12.87-2.43-18.28.78L0,226.18c.1,7.3.06,10.2.25,12.43.14,1.62,1.4,3.27,3.37,4.43l176.29,101.91c4.68,2.77,12.87,2.43,18.28-.78l112.18-66.4c5.41-3.2,2.47-7.83,1.31-10.82Z"/><path class="cls-2" d="m4.36,220.56l110.05-61.58c5.31-2.97,13.39-3.19,18.06-.5l177.79,102.65c4.67,2.69,4.15,7.29-1.16,10.25l-110.05,61.58c-5.31,2.97-13.39,3.19-18.06.5L3.2,230.81c-4.67-2.69-4.15-7.29,1.16-10.25Z"/><path class="cls-3" d="m68.02,196.3l47.44-26.54c5.31-2.97,13.39-3.19,18.06-.5l157.8,91.1c4.67,2.69,4.15,7.29-1.16,10.25l-47.44,26.54c-5.31,2.97-13.39,3.19-18.06.5l-157.8-91.1c-4.67-2.69-4.15-7.29,1.16-10.25Z"/><path class="cls-6" d="m68.62,251.31l24.52-13.72c5.31-2.97,13.39-3.19,18.06-.5l59.8,34.52c4.67,2.69,4.15,7.29-1.16,10.25l-24.52,13.72c-5.31,2.97-13.39,3.19-18.06.5l-59.8-34.52c-4.67-2.69-4.15-7.29,1.16-10.25Z"/><path class="cls-6" d="m197.91,344.36s-2.42,1.45-4.89,1.88c0,0-2.81.67-5.56.67v-11.65s2.18.38,6.5-.43c0,0,2.8-.59,5.54-2.14l109.54-61.55s3.99-1.81,4.43-5.44l.28,6.21c.05,1.04-.09,2.07-.44,3.05-.6,1.66-1.91,4.03-4.65,5.43"/><path class="cls-7" d="m186.59,335.18s1.25.18,3.33.14l.38,11.41s-2.18.37-3.55.08l-.17-11.63Z"/></g></svg>