<?xml version="1.0" encoding="UTF-8"?><svg id="Layer_2" xmlns="http://www.w3.org/2000/svg" width="2755.45" height="390.89" viewBox="0 0 2755.45 390.89"><defs><style>.cls-1{fill:none;stroke:#6184a0;stroke-miterlimit:10;stroke-width:6px;}</style></defs><g id="Layer_1-2"><path class="cls-1" d="m119.48,213.79c-43.26-25.38-105.63,8.07-115.04,57.33-9.41,49.26,28.43,100.21,76.92,113.01,48.49,12.8,101.98-8.2,135.75-45.27,26.07-28.62,40.99-74.95,16.9-105.26-29.62-37.27-99.09-13.28-109.78,33.11-10.69,46.39,25.85,93.98,70.96,109.2,45.11,15.22,95.01,4.91,139.31-12.54,38.23-15.06,76.54-37.5,94.76-74.34,18.22-36.83,6.87-90.16-31.52-104.82-52.97-20.22-103.81,54.73-79.96,106.17s88.85,70.92,145.3,65.64c80.94-7.57,165.83-75.14,151.17-155.1-38.62-36.12-111.16-6.19-122.98,45.35-11.82,51.54,27.23,105.34,77.31,122.3,50.08,16.96,106.26,3.44,152.26-22.64,44.31-25.12,85.53-76.21,65.23-122.92-22.16-50.97-109.11-43.39-131.77,7.35-22.66,50.74,13.91,114.22,66.31,132.73,52.4,18.51,112.16.08,156.37-33.6,44.21-33.68,75.93-80.76,106.82-126.95-11.1-55.28-100.27-64.14-131.47-17.18-31.2,46.96-4.44,116.54,45.15,143.37,49.59,26.83,112.15,18.08,162.43-7.43,32.42-16.45,62.71-41.01,75.94-74.88,13.23-33.87,4.54-77.85-26.41-96.94-40.74-25.13-99.78,8.76-108.66,55.79-8.88,47.03,22.81,94.93,65.29,116.99s92.97,22.74,140.35,15.98c51.1-7.29,105.24-25.71,133.15-69.13,27.91-43.42,11.22-115.33-39.4-125.44-47.08-9.41-90.07,44.31-80.72,91.4,9.35,47.09,56.67,79.63,104.38,85.01s95.2-11.16,138.46-32.01c29.24-14.09,58.85-31.6,74.82-59.85,15.97-28.25,12.5-69.78-15.21-86.68-35.36-21.56-85.1,15.98-83.99,57.38s38.98,74.6,79.41,83.62c40.42,9.02,82.5-.77,122.26-12.37,32.48-9.47,66.31-21.29,88.23-47.06s25.9-69.71-.38-91.01c-31.14-25.24-83.97,2.84-89.39,42.56-5.41,39.72,26.14,77.54,64,90.7s79.76,6.67,118.15-4.86c30.1-9.04,60.39-21.85,81.29-45.32s29.9-59.91,14.07-87.06c-25.39-43.56-102.23-29.84-119.87,17.39-17.64,47.23,17.53,102.81,65.44,118.51,47.91,15.7,101.72-1.41,141.84-31.93,40.13-30.53,69.23-72.96,97.62-114.63-23.21-38.67-91.9-25.13-106.7,17.48-14.8,42.6,18.06,91.54,61.33,104.27,43.27,12.73,90.9-4.18,125.82-32.73,34.92-28.55,59.56-67.43,83.58-105.6-24.95-38.71-94.31-24.15-109.44,19.35-15.13,43.5,18.1,93.66,62.28,106.67s92.98-4.76,127.67-35.05c34.68-30.3,57.67-71.56,78.25-112.76-30.34-39.14-101.5-26.43-122.79,18.27-21.29,44.71,5.51,102.95,50.59,123.44s100.87,7.01,138.33-25.38c37.46-32.39,58.33-80.67,66.57-129.5-23.01-37.52-86.38-33.95-111.24,2.36-24.87,36.31-12.06,90.14,21.64,118.44,33.7,28.3,82.48,33.57,125.06,22.43,42.58-11.14,79.95-36.68,113.84-64.76,20.28-16.8,40.73-36.49,45.97-62.29,9.13-44.95-41.21-88.46-85.72-77.36-44.51,11.1-69.63,66.62-53.38,109.51,16.25,42.9,66.32,67.96,111.66,60.97"/></g></svg>