<?xml version="1.0" encoding="UTF-8"?><svg id="Layer_2" xmlns="http://www.w3.org/2000/svg" width="1934.27" height="228.26" viewBox="0 0 1934.27 228.26"><defs><style>.cls-1{fill:none;stroke:#6184a0;stroke-miterlimit:10;stroke-width:6px;}</style></defs><g id="Layer_1-2"><path class="cls-1" d="m2.65,146.33c37.04,69.29,132.93,99.49,203,63.94,53.29-27.04,90.28-84.95,148.75-97.32,87.39-18.49,166.33,74.63,255.19,65.53,84.92-8.7,143.72-107.55,229.06-105.05,66.27,1.94,123.8,66.53,188.63,52.61,49.79-10.69,80.8-64.32,129.96-77.63,69.82-18.9,136.99,50.7,208.99,43.82,72.94-6.97,131.42-90.62,202.37-72.29,41.08,10.62,73.04,54.61,115.08,48.88,45.25-6.17,70.96-67.87,116.57-65.76,25.32,1.17,44.43,22.09,63.62,38.66s47.88,30.07,68.71,15.64"/></g></svg>