<?xml version="1.0" encoding="UTF-8"?><svg id="Layer_2" xmlns="http://www.w3.org/2000/svg" width="92.45" height="86.06" viewBox="0 0 92.45 86.06"><defs><style>.cls-1{fill:#4e5e68;}.cls-1,.cls-2,.cls-3,.cls-4,.cls-5,.cls-6,.cls-7,.cls-8,.cls-9,.cls-10,.cls-11{stroke-width:0px;}.cls-2{fill:#2b2f33;}.cls-3{fill:#6fa0c7;}.cls-4{fill:#6c9694;}.cls-5{fill:#ddcdc7;}.cls-6{fill:#c6e3e5;}.cls-7{fill:#b08781;}.cls-8{fill:#c05949;}.cls-9{fill:#a5bfd3;}.cls-10{fill:#fff;}.cls-11{fill:#e9f2f2;}</style></defs><g id="design"><path class="cls-9" d="m91.46,0h-48.02c-2.5,0-4.95.67-7.12,1.93L.49,22.87c-.31.18-.49.51-.49.87v59.44c0,.77.82,1.25,1.48.87l38.14-22.29h51.84c.55,0,.99-.45.99-1V1c0-.55-.44-1-.99-1Z"/><path class="cls-1" d="m91.22.8h-48.13c-2.09,0-4.15.56-5.96,1.61L1.25,23.31c-.17.1-.28.29-.28.49v59.15c0,.44.47.71.85.49l37.93-22.1c.09-.05.19-.08.29-.08h51.17c.31,0,.57-.26.57-.57V1.37c0-.31-.26-.57-.57-.57Z"/><path class="cls-4" d="m40.49,2.25c15.64.56,49.21,0,49.21,0v58.58s-49.21,0-49.21,0V2.25Z"/><path class="cls-8" d="m2.44,24.21S38.73,4.14,40.49,2.25c.11,8.4,0,58.58,0,58.58L2.44,82.79V24.21Z"/><path class="cls-7" d="m3.62,24.89S37.79,5.64,40.49,2.25c-.02.26,0,58.58,0,58.58L3.62,83.47V24.89Z"/><path class="cls-6" d="m40.49,2.25c10.3.69,40.56.63,48.99.27l-.12,58.59s-25.26,3.07-48.91-.28c-.06,0,.01-58.58.03-58.58Z"/><path class="cls-5" d="m5.16,25.76S38.52,6.47,40.49,2.25c.37,31.82-.06,58.53-.06,58.53L5.16,84.34V25.76Z"/><path class="cls-11" d="m40.37,2.42c9.44,1.21,39.85,1.22,48.16.87l-.12,58.59s-24.9,3.29-48.2-.07c-.06,0,.13-59.39.15-59.39Z"/><path class="cls-10" d="m6.99,27.48S38.77,7.97,40.34,3.06c1.78,29.43,0,58.58,0,58.58-1.9,7.01-33.35,24.42-33.35,24.42V27.48Z"/><path class="cls-1" d="m35.53,5.39c3.99-2.31,3.73-3.5,12.04-3.07l-6.85-.83s-6.17,4.47-5.19,3.9Z"/><path class="cls-2" d="m12.87,39.19l6.1-6.2-6.1.85v-3.57s10.04-1.05,10.04-1.05v2.98s-10.04,10.53-10.04,10.53v-3.55Z"/><path class="cls-2" d="m26.43,35.19l1.84-1.06-3.25,17.1-1.82,1.05,3.23-17.09Z"/><path class="cls-2" d="m31.46,32.29l1.84-1.06-3.25,17.1-1.82,1.05,3.23-17.09Z"/><path class="cls-2" d="m38.97,57.81l-8.33.88v-2.47s8.33-8.75,8.33-8.75v2.96s-5.06,5.14-5.06,5.14l5.06-.7v2.94Z"/><path class="cls-3" d="m67.73,38.48h-8.92v-.89c0-1.52.17-2.75.52-3.7s.86-1.81,1.54-2.59,2.21-2.16,4.59-4.13c1.27-1.03,1.9-1.98,1.9-2.84s-.25-1.53-.76-2.01-1.28-.72-2.31-.72c-1.11,0-2.03.37-2.76,1.1s-1.19,2.02-1.4,3.85l-9.1-1.13c.31-3.35,1.53-6.04,3.65-8.08s5.37-3.06,9.75-3.06c3.41,0,6.16.71,8.26,2.13,2.85,1.92,4.27,4.49,4.27,7.7,0,1.33-.37,2.61-1.1,3.85s-2.24,2.74-4.5,4.53c-1.58,1.25-2.58,2.26-2.99,3.01s-.62,1.75-.62,2.97Zm-9.22,2.37h9.55v8.42h-9.55v-8.42Z"/></g></svg>