<?xml version="1.0" encoding="UTF-8"?><svg id="Layer_2" xmlns="http://www.w3.org/2000/svg" width="166" height="113.48" viewBox="0 0 166 113.48"><defs><style>.cls-1{fill:none;}.cls-1,.cls-2{stroke:#f4c7ae;stroke-miterlimit:10;stroke-width:.38px;}.cls-2{fill:#fffdeb;}.cls-3,.cls-4,.cls-5,.cls-6,.cls-7,.cls-8,.cls-9,.cls-10,.cls-11,.cls-12{stroke-width:0px;}.cls-4{fill:#f7f6df;}.cls-5{fill:#759eba;}.cls-6{fill:#4f4f4f;}.cls-7{fill:#4f4e46;}.cls-8{fill:#6381ad;}.cls-9{fill:#424e70;}.cls-10{fill:#8ba9cc;}.cls-11{fill:#ffe;}.cls-12{fill:#efede1;}</style></defs><g id="design"><polygon class="cls-5" points="115.27 7.32 127.95 0 166 21.97 153.32 29.29 115.27 7.32"/><polygon class="cls-4" points="115.27 51.26 115.27 7.32 153.32 29.29 153.32 73.23 115.27 51.26"/><polygon class="cls-7" points="166 65.9 153.32 73.23 153.32 29.29 166 21.97 166 65.9"/><path class="cls-3" d="m127.43,35.62c-1.05-1.25-1.82-2.41-2.3-3.48-.66-1.46-.99-2.89-.99-4.3,0-2.31.95-3.66,2.84-4.03,1.48-.28,3.44.29,5.87,1.69,3.22,1.86,5.6,3.94,7.14,6.23,1.54,2.3,2.31,4.51,2.31,6.65,0,1.24-.31,2.23-.92,2.95-.46.54-1.18.9-2.17,1.08,1.3,1.47,2.28,2.98,2.92,4.53s.96,3.04.96,4.48c0,1.38-.28,2.51-.83,3.39s-1.23,1.41-2.04,1.6-1.81.09-3.01-.3c-1.2-.39-2.48-.97-3.84-1.75-2.55-1.47-4.5-2.95-5.85-4.42-1.35-1.47-2.37-3.08-3.07-4.83s-1.05-3.45-1.05-5.11c0-1.62.33-2.8.99-3.55.66-.74,1.67-1.03,3.04-.85Zm2.65,7.99c0,1.22.32,2.4.97,3.55s1.39,1.96,2.22,2.44,1.52.48,2.15.07.95-1.23.95-2.44c0-1.22-.32-2.4-.96-3.55s-1.38-1.97-2.23-2.45-1.56-.52-2.18-.13-.93,1.24-.93,2.52Zm.36-11.68c0,.95.26,1.87.78,2.76s1.21,1.58,2.08,2.08c.77.44,1.4.52,1.89.22s.74-.9.74-1.82c0-.95-.26-1.88-.77-2.77s-1.17-1.57-1.97-2.03-1.47-.56-1.98-.27-.76.9-.76,1.83Z"/><path class="cls-12" d="m48.33,34.24l66.95,38.65c.92.53,1.01,1.34.2,1.81l-44.64,25.78c-.81.47-2.21.42-3.13-.12L.75,61.71c-.92-.53-1.01-1.34-.2-1.81l22.67-13.09,21.98-12.69c.81-.47,2.21-.42,3.13.12Z"/><line class="cls-2" x1="22.94" y1="47.5" x2="92.67" y2="87.76"/><line class="cls-2" x1="63.57" y1="43.15" x2="16.34" y2="70.41"/><line class="cls-2" x1="81.29" y1="53.38" x2="33.96" y2="80.7"/><line class="cls-1" x1="99.17" y1="63.89" x2="51.91" y2="91.18"/><path class="cls-9" d="m128.68,91c.7.4-.8,1.92-3.36,3.4l-22.77,13.15c-1.95,1.13-3.95,1.9-5.09,2.02l2.15,2.49c.01-.62,2.36-2.58,4.48-3.8l23.83-10.99c2.27-1.31,4.1-2.16,4.83-2.7l-.55-1.95-1.38-1.44-1.84-.38-.33.19s.03.01.04.02Z"/><path class="cls-8" d="m102.55,107.54l22.77-13.15c2.55-1.47,4.05-2.99,3.36-3.4-.01,0-.03-.01-.04-.02l-31.68,18.29.5.29c1.15-.12,3.14-.89,5.09-2.02Z"/><path class="cls-10" d="m126.66,95.13l-22.77,13.15c-2.12,1.22-4.44,2.96-4.45,3.58l.61,1.3,31.26-17.75c.53-1.62-2.37-1.59-4.64-.28Z"/><path class="cls-11" d="m95.01,112.52c.16.09.09.64-.08.95l5.11-.29c-.38-3.12-.18-3.47-3.08-3.91-.04,0-2.75,3.29-2.75,3.29.34-.1.64-.12.79-.03Z"/><path class="cls-6" d="m95.11,112.58c-.16-.19-.55-.13-.89-.03l-.69.93,1.4-.02c.22-.22.36-.66.17-.88Z"/></g></svg>