<svg width="164" height="176" viewBox="0 0 164 176" fill="none" xmlns="http://www.w3.org/2000/svg">
<path d="M0.848633 0.282471H13.6738V30.2961H13.8988C15.4738 27.6534 17.7989 25.4638 20.8739 23.7271C24.0239 21.915 27.5115 21.0089 31.3365 21.0089C37.7116 21.0089 42.7367 22.67 46.4118 25.9923C50.0868 29.3146 51.9243 34.298 51.9243 40.9425V81.1495H39.0991V44.3403C38.9492 39.7344 37.9741 36.4121 36.1741 34.3735C34.3741 32.2593 31.5616 31.2022 27.7365 31.2022C25.5615 31.2022 23.6114 31.6175 21.8864 32.4481C20.1614 33.2031 18.6989 34.298 17.4989 35.7326C16.2988 37.0917 15.3613 38.7151 14.6863 40.6027C14.0113 42.4904 13.6738 44.4913 13.6738 46.6055V81.1495H0.848633V0.282471Z" fill="#6184A0"/>
<path d="M97.512 46.7187C97.362 44.6801 96.912 42.7169 96.162 40.8293C95.487 38.9416 94.512 37.3182 93.237 35.9591C92.037 34.5245 90.5369 33.3919 88.7369 32.5613C87.0119 31.6553 85.0619 31.2022 82.8869 31.2022C80.6368 31.2022 78.5743 31.6175 76.6993 32.4481C74.8992 33.2031 73.3242 34.298 71.9742 35.7326C70.6992 37.0917 69.6492 38.7151 68.8242 40.6027C68.0742 42.4904 67.6617 44.529 67.5867 46.7187H97.512ZM67.5867 55.2132C67.5867 57.4784 67.8867 59.668 68.4867 61.7822C69.1617 63.8964 70.1367 65.7463 71.4117 67.3319C72.6867 68.9175 74.2992 70.2011 76.2493 71.1827C78.1993 72.0888 80.5243 72.5418 83.2244 72.5418C86.9744 72.5418 89.9744 71.749 92.2245 70.1634C94.5495 68.5022 96.2745 66.0483 97.3995 62.8015H109.55C108.875 65.9728 107.712 68.8043 106.062 71.296C104.412 73.7877 102.425 75.9018 100.1 77.6385C97.7745 79.2996 95.1495 80.5455 92.2245 81.376C89.3744 82.2821 86.3744 82.7351 83.2244 82.7351C78.6493 82.7351 74.5992 81.9801 71.0742 80.47C67.5491 78.9598 64.5491 76.8457 62.0741 74.1274C59.674 71.4092 57.8365 68.1625 56.5615 64.3872C55.3615 60.6119 54.7615 56.459 54.7615 51.9286C54.7615 47.7758 55.399 43.8495 56.674 40.1497C58.024 36.3744 59.899 33.0899 62.2991 30.2961C64.7741 27.4269 67.7366 25.1617 71.1867 23.5006C74.6367 21.8395 78.5368 21.0089 82.8869 21.0089C87.4619 21.0089 91.5495 21.9905 95.1495 23.9536C98.8246 25.8413 101.862 28.3707 104.262 31.542C106.662 34.7133 108.387 38.3753 109.437 42.5281C110.562 46.6055 110.862 50.8338 110.337 55.2132H67.5867Z" fill="#6184A0"/>
<path d="M105.799 22.5945H119.862L135.05 66.3126H135.275L150.012 22.5945H163.4L140.787 84.3208C139.737 86.9635 138.687 89.4929 137.637 91.9091C136.662 94.3253 135.425 96.4395 133.925 98.2516C132.5 100.139 130.7 101.612 128.525 102.669C126.35 103.801 123.575 104.368 120.2 104.368C117.2 104.368 114.237 104.141 111.312 103.688L110.973 94.7406C112.023 94.8916 113.131 95.1559 114.106 95.3069C115.081 95.5334 116.337 93.608 117.387 93.608C118.887 93.608 120.125 93.4193 121.1 93.0417C122.075 92.6642 122.862 92.0979 123.462 91.3428C124.137 90.6633 124.7 89.8327 125.15 88.8511C125.6 87.8695 126.012 86.737 126.387 85.4534L127.85 80.923L105.799 22.5945Z" fill="#6184A0"/>
<path d="M0.848633 71.0694H13.6738V101.083H13.8988C15.4738 98.4404 17.7989 96.2507 20.8739 94.5141C24.0239 92.7019 27.5115 91.7959 31.3365 91.7959C37.7116 91.7959 42.7367 93.457 46.4118 96.7793C50.0868 100.102 51.9243 105.085 51.9243 111.729V151.936H39.0991V115.127C38.9492 110.521 37.9741 107.199 36.1741 105.16C34.3741 103.046 31.5616 101.989 27.7365 101.989C25.5615 101.989 23.6114 102.404 21.8864 103.235C20.1614 103.99 18.6989 105.085 17.4989 106.52C16.2988 107.879 15.3613 109.502 14.6863 111.39C14.0113 113.277 13.6738 115.278 13.6738 117.392V151.936H0.848633V71.0694Z" fill="#6184A0"/>
<path d="M97.512 117.506C97.362 115.467 96.912 113.504 96.162 111.616C95.487 109.729 94.512 108.105 93.237 106.746C92.037 105.311 90.5369 104.179 88.7369 103.348C87.0119 102.442 85.0619 101.989 82.8869 101.989C80.6368 101.989 78.5743 102.404 76.6993 103.235C74.8992 103.99 73.3242 105.085 71.9742 106.52C70.6992 107.879 69.6492 109.502 68.8242 111.39C68.0742 113.277 67.6617 115.316 67.5867 117.506H97.512ZM67.5867 126C67.5867 128.265 67.8867 130.455 68.4867 132.569C69.1617 134.683 70.1367 136.533 71.4117 138.119C72.6867 139.704 74.2992 140.988 76.2493 141.97C78.1993 142.876 80.5243 143.329 83.2244 143.329C86.9744 143.329 89.9744 142.536 92.2245 140.95C94.5495 139.289 96.2745 136.835 97.3995 133.589H109.55C108.875 136.76 107.712 139.591 106.062 142.083C104.412 144.575 102.425 146.689 100.1 148.425C97.7745 150.087 95.1495 151.332 92.2245 152.163C89.3744 153.069 86.3744 153.522 83.2244 153.522C78.6493 153.522 74.5992 152.767 71.0742 151.257C67.5491 149.747 64.5491 147.633 62.0741 144.914C59.674 142.196 57.8365 138.949 56.5615 135.174C55.3615 131.399 54.7615 127.246 54.7615 122.716C54.7615 118.563 55.399 114.636 56.674 110.937C58.024 107.161 59.899 103.877 62.2991 101.083C64.7741 98.2139 67.7366 95.9487 71.1867 94.2876C74.6367 92.6264 78.5368 91.7959 82.8869 91.7959C87.4619 91.7959 91.5495 92.7775 95.1495 94.7406C98.8246 96.6283 101.862 99.1577 104.262 102.329C106.662 105.5 108.387 109.162 109.437 113.315C110.562 117.392 110.862 121.621 110.337 126H67.5867Z" fill="#6184A0"/>
<path d="M105.799 93.3815H119.862L135.05 137.1H135.275L150.012 93.3815H163.4L140.787 155.108C139.737 157.75 138.687 160.28 137.637 162.696C136.662 165.112 135.425 167.226 133.925 169.039C132.5 170.926 130.7 172.399 128.525 173.456C126.35 174.588 123.575 175.155 120.2 175.155C117.2 175.155 114.237 174.928 111.312 174.475V163.602C112.362 163.753 113.374 163.904 114.349 164.055C115.324 164.282 116.337 164.395 117.387 164.395C118.887 164.395 120.125 164.206 121.1 163.829C122.075 163.451 122.862 162.885 123.462 162.13C124.137 161.45 124.7 160.62 125.15 159.638C125.6 158.657 126.012 157.524 126.387 156.24L127.85 151.71L105.799 93.3815Z" fill="#6184A0"/>
</svg>
