<?xml version="1.0" encoding="UTF-8"?><svg id="Layer_3" xmlns="http://www.w3.org/2000/svg" width="248" height="153" viewBox="0 0 248 153"><defs><style>.cls-1{fill:#346b93;}.cls-1,.cls-2,.cls-3,.cls-4,.cls-5{stroke-width:0px;}.cls-2{fill:#230e26;}.cls-3{fill:#ffed60;}.cls-4{fill:#f18585;}.cls-5{fill:#e68886;}</style></defs><path class="cls-1" d="m242.99,31.86c-23.79-1.02-82.11,29.5-105.17,42.14C106.11,40.97,61.37,5.29,42.3,9.94c0,0-55.65,96.79-38.97,124.94,18.71,31.58,103.57,16.91,160.95-6.36l.29.38s73.89-36.46,62.09-38.42c-6.28-1.05-26.8,5.55-44.64,11.95,33.45-27.57,81.1-69.7,60.97-70.56Z"/><path class="cls-4" d="m32,0l27.3,12.67s-12.29,16.33-21.59,5.56C34.59,14.62,32,0,32,0Z"/><circle class="cls-3" cx="63.42" cy="43.21" r="17.76"/><circle class="cls-2" cx="63.42" cy="43.21" r="9.09"/><path class="cls-5" d="m125.86,60.98c-18.83-15.38-50.49-6.5-59.55,23.33-4.06,13.38,5.58,28.97,13.33,33.64,31.76,19.14,102.46,13.05,102.46,13.05,0,0-32.62-50.71-56.25-70.02Z"/></svg>