<?xml version="1.0" encoding="UTF-8"?><svg id="Layer_1" xmlns="http://www.w3.org/2000/svg" width="384" height="411" xmlns:xlink="http://www.w3.org/1999/xlink" viewBox="0 0 384 411"><defs><style>.cls-1{clip-path:url(#clippath);}.cls-2{fill:none;}.cls-2,.cls-3,.cls-4,.cls-5,.cls-6,.cls-7,.cls-8,.cls-9,.cls-10,.cls-11{stroke-width:0px;}.cls-12{clip-path:url(#clippath-1);}.cls-3{fill:#f7a099;}.cls-4{fill:#f7a098;}.cls-5{fill:#3a1e2c;}.cls-6{fill:#3d1e2c;}.cls-7{fill:#3c1d2b;}.cls-8{fill:#3f1e2c;}.cls-9{fill:#dd5168;}.cls-10{fill:#eee584;}.cls-11{fill:#efd5d1;}</style><clipPath id="clippath"><path class="cls-2" d="m355.37,103.72c-.55-5.01-3.78-9.6-8.25-12.41-5.77-3.63-14.89-7.18-22.73-.55-6.57,5.55-9.89,16.77-6.32,22.86,5.11,8.7,16.73,11.87,27.89,7.23,6.48-2.69,10.25-9.4,9.4-17.13Z"/></clipPath><clipPath id="clippath-1"><path class="cls-2" d="m289.55,114.92c-1.26-4.88-5.11-8.97-9.93-11.11-6.23-2.77-15.76-4.98-22.58,2.69-5.71,6.43-7.4,18.01-3,23.53,6.3,7.89,18.25,9.37,28.64,3.18,6.03-3.59,8.81-10.76,6.87-18.29Z"/></clipPath></defs><path class="cls-4" d="m212.9,141.11s1.87-4.33,4.96-10.92c9.26-19.77,29.47-59.86,43.02-64.35,34.45-11.42,55.87-13.52,55.87-13.52,0,0,36.92,18.97,67.02,43.21,0,0-17.13,41.16-33.79,61.55,0,0-52.24,17.77-95.8,11.88l-41.29-27.84Z"/><path class="cls-4" d="m225.86,44.62c-3.63,6.06-10.85,31.81-1.1,75.82,9.75,44.01,46.32-53.49,46.32-53.49,0,0-37.6-35.04-45.22-22.33Z"/><path class="cls-4" d="m249.84,157.11s-57.63,50.66-53.02,50.24c114.74-10.65,130.03,19.51,142.63-21.29,4.09-13.25,24.26-49.9,24.26-49.9l-60.02-78.83s2.35-37.75,9.57-38.35c13.16-1.09,60.66,68.65,60.66,68.65"/><path class="cls-5" d="m233.34,61.78c-3.79,10.47-2.33,17.53-.49,25.72.38,1.7,2.29,2.8,4.01,1.43,8.4-6.71,13.16-10.52,21.55-14.69,3.92-1.95,3.12-4.94,1.84-6.13-5.2-4.84-11.74-9.28-20.64-10.95-3.08-.58-5.19,1.63-6.27,4.62Z"/><path class="cls-5" d="m323.57,33.41c6.95,6.28,9.39,12.86,12.14,20.56.57,1.6,0,3.61-1.59,3.49-7.81-.55-12.24-.88-18.87.61-3.1.7-4.03-2.2-3.86-3.89.69-6.95,2.31-14.35,6.53-20.88,1.46-2.26,3.66-1.69,5.65.1Z"/><g class="cls-1"><path class="cls-10" d="m355.37,103.72c-.55-5.01-3.78-9.6-8.25-12.41-5.77-3.63-14.89-7.18-22.73-.55-6.57,5.55-9.89,16.77-6.32,22.86,5.11,8.7,16.73,11.87,27.89,7.23,6.48-2.69,10.25-9.4,9.4-17.13Z"/><circle class="cls-6" cx="336.25" cy="105.01" r="15.46"/></g><g class="cls-12"><path class="cls-10" d="m289.55,114.92c-1.26-4.88-5.11-8.97-9.93-11.11-6.23-2.77-15.76-4.98-22.58,2.69-5.71,6.43-7.4,18.01-3,23.53,6.3,7.89,18.25,9.37,28.64,3.18,6.03-3.59,8.81-10.76,6.87-18.29Z"/><circle class="cls-6" cx="270.86" cy="119.14" r="15.46"/></g><path class="cls-3" d="m34.29,252.77C-8.23,118.68,68.94,4.71,126.87.59c18.25-1.3,25.92,6.17,23.2,14.54-2.72,8.37-16.05,7.97-26.35,10.92-31.67,9.05-90.81,111.48-58.94,189.84"/><path class="cls-9" d="m320.82,252.77l-43.41,64.3,42.8-16.43c6.4-2.46,13.58.76,16.01,7.17l3.22,8.51c3.41,9.01-.9,19.11-9.77,22.87l-2.25.96-9.89-19.78-78.58,26.93,37.37-93.97,44.51-.55Z"/><ellipse class="cls-7" cx="304.58" cy="126.55" rx="10.17" ry="7.11" transform="translate(-23.6 93.63) rotate(-16.83)"/><ellipse class="cls-11" cx="295.5" cy="147.29" rx="19.93" ry="15.66" transform="translate(38.14 354.12) rotate(-65.28)"/><ellipse class="cls-11" cx="325.01" cy="138.26" rx="15.66" ry="19.93" transform="translate(28.84 330.7) rotate(-56.06)"/><path class="cls-8" d="m301.71,165.71c-.31,0-.61-.12-.84-.36-.43-.46-.41-1.19.05-1.62,5.08-4.76,8.82-10.81,10.8-17.48.18-.61.82-.95,1.43-.77.61.18.95.82.77,1.43-2.1,7.06-6.06,13.46-11.43,18.5-.22.21-.5.31-.78.31Z"/><path class="cls-8" d="m331.96,157.12s-.09,0-.14,0c-7.31-.89-14.28-3.72-20.15-8.18-.5-.38-.6-1.1-.22-1.6s1.1-.6,1.6-.22c5.55,4.21,12.13,6.88,19.04,7.73.63.08,1.07.65,1,1.28-.07.58-.57,1.01-1.14,1.01Z"/><path class="cls-9" d="m131.98,279.15l-72.08,59.33c-5.64,4.64-12.67,7.25-19.97,7.42l-12.91.29-9.37,23.47s.6.09,1.61.35c7.96,2.07,14.13,8.35,16.15,16.32l.75,2.98-35.94-1.95,14.15-84.02,28.58-54.95,89.02,30.77Z"/><path class="cls-4" d="m336.15,193.54l-108.93,199.48,10.75,3.91c3.84,1.4,7.24,3.79,9.84,6.94l2.23,6.67-54.02-2.69,90.67-198.93,49.46-15.39Z"/><path class="cls-4" d="m30.66,244.85l43.85,119.82,42.7,39.02,37.37,1.48s-5.39-16.03-14.59-21.11c-38.58-21.27-35.75-46.77-35.75-46.77l37.98-74.3-111.78-30.46c-2.11-.58-.51,10.25.23,12.31Z"/><path class="cls-4" d="m230.97,158.49c-90.35,22.38-177.77,8.06-177.77,8.06,0,0-41.91,44.96-18.91,86.23,12.6,22.6,123.1,36.45,183.08,40.77,136.59,9.82,117.37-102.77,118.55-107.1,1-3.67-81.07-33.87-104.95-27.95Z"/><path class="cls-9" d="m237.54,157.73c50.23,65.8,98.61,35.81,98.61,35.81l15.41-34.38s-40.98,33.66-114.03-1.43Z"/></svg>